<svg width="49" height="80" viewBox="0 0 49 80" fill="none" xmlns="http://www.w3.org/2000/svg">
<g id="_&#195;&#191;__2" clip-path="url(#clip0_45_3751)">
<path id="Vector" d="M27.745 79.7924C26.3661 79.7924 25.1543 79.0371 24.5025 77.919C23.8508 79.0404 22.639 79.7924 21.2601 79.7924C19.1869 79.7924 17.5035 78.0938 17.5035 76.0094V54.1921C17.5035 52.3979 16.914 50.6169 15.8462 49.1789L7.67466 38.1664C7.20631 37.5331 7.02618 36.7548 7.16046 35.9797C7.29802 35.2046 7.73034 34.5384 8.38538 34.1031C9.6234 33.2818 11.2905 33.5721 12.1813 34.7627L18.2895 42.8036C19.0821 43.8524 20.2841 44.4922 21.5876 44.5615H27.4371C28.7374 44.4889 29.9328 43.8491 30.7188 42.8036C30.7254 42.7937 30.7352 42.7838 30.745 42.7739L37.7146 34.7462C38.6088 33.5688 40.266 33.2884 41.4975 34.1031C42.1525 34.5351 42.5848 35.2013 42.7224 35.9797C42.8599 36.7548 42.6765 37.5331 42.2115 38.1631L33.149 49.1987C32.0977 50.6136 31.5082 52.3946 31.5082 54.1921V76.0094C31.5082 78.0971 29.8214 79.7924 27.7515 79.7924H27.745ZM24.4436 63.0839H24.5615C24.8792 63.0839 25.1347 63.3412 25.1347 63.6611V76.0061C25.1347 77.4573 26.3072 78.6347 27.745 78.6347C29.1828 78.6347 30.3553 77.454 30.3553 76.0061V54.1888C30.3553 52.144 31.0234 50.1189 32.2418 48.483L41.3042 37.4474C41.563 37.0945 41.6711 36.636 41.5892 36.1743C41.5073 35.7126 41.2518 35.3201 40.8621 35.0628C40.1284 34.578 39.1393 34.7495 38.6088 35.4553C38.5989 35.4652 38.5924 35.4784 38.5826 35.4883L31.613 43.516C30.6173 44.8254 29.1107 45.6235 27.4764 45.7093C27.4666 45.7093 27.4568 45.7093 27.4469 45.7093H21.5549C19.8813 45.6202 18.3714 44.8155 17.3758 43.4962L11.2675 35.4553C10.737 34.7462 9.74785 34.5747 9.01421 35.0628C8.62774 35.3201 8.369 35.7159 8.28712 36.1743C8.20524 36.636 8.31332 37.0945 8.59171 37.4705L16.7633 48.483C17.9784 50.1189 18.6498 52.144 18.6498 54.1888V76.0061C18.6498 77.4573 19.8223 78.6347 21.2601 78.6347C22.6979 78.6347 23.8704 77.454 23.8704 76.0061V63.6611C23.8704 63.3412 24.1259 63.0839 24.4436 63.0839Z" fill="white"/>
<path id="Vector_2" d="M24.4988 43.7271C21.9573 43.7271 19.8906 41.4646 19.8906 38.6809C19.8906 35.8973 21.9573 33.6348 24.4988 33.6348C27.0403 33.6348 29.107 35.9006 29.107 38.6809C29.107 41.4613 27.0403 43.7271 24.4988 43.7271ZM24.4988 34.7891C22.5894 34.7891 21.0369 36.5338 21.0369 38.6809C21.0369 40.828 22.5894 42.5728 24.4988 42.5728C26.4082 42.5728 27.9607 40.828 27.9607 38.6809C27.9607 36.5338 26.4082 34.7891 24.4988 34.7891Z" fill="white"/>
<path id="Vector_3" d="M15.2665 80.0003H6.56432C6.39729 80.0003 6.24008 79.9277 6.13199 79.7991C6.02391 79.6737 5.97479 79.5022 5.99771 79.3373L10.7271 46.8175C10.7729 46.5009 11.0611 46.2832 11.3788 46.3294C11.6933 46.3756 11.9094 46.6691 11.8636 46.9858L7.22918 78.8459H15.2665C15.5842 78.8459 15.8396 79.1032 15.8396 79.4231C15.8396 79.743 15.5842 80.0003 15.2665 80.0003Z" fill="white"/>
<path id="Vector_4" d="M42.4334 80.0003H33.8622C33.5445 80.0003 33.2891 79.743 33.2891 79.4231C33.2891 79.1032 33.5445 78.8459 33.8622 78.8459H41.7718L37.1374 46.9858C37.0915 46.6691 37.3077 46.3756 37.6221 46.3294C37.9365 46.2832 38.228 46.5009 38.2739 46.8175L43.0033 79.3373C43.0262 79.5022 42.977 79.6704 42.869 79.7991C42.7609 79.9244 42.6004 80.0003 42.4366 80.0003H42.4334Z" fill="white"/>
<path id="Vector_5" d="M13.3746 33.1667C13.3484 33.1667 13.319 33.1667 13.2928 33.1601C12.9783 33.1139 12.7622 32.8204 12.808 32.5071L13.5843 27.1673H0.571955C0.342692 27.1673 0.136356 27.0321 0.0479261 26.821C-0.043779 26.61 -0.00120164 26.3659 0.152732 26.1977L24.0779 0.178556C24.2941 -0.0556125 24.7035 -0.0556125 24.9197 0.178556L48.8449 26.1977C48.9988 26.3659 49.0414 26.61 48.9497 26.821C48.858 27.0321 48.6516 27.1673 48.4256 27.1673H35.4133L36.0553 31.5869C36.1011 31.9035 35.885 32.1937 35.5706 32.2399C35.2594 32.2861 34.9679 32.0684 34.9221 31.7518L34.1852 26.6726C34.1622 26.5077 34.2114 26.3395 34.3194 26.2109C34.4275 26.0856 34.588 26.0097 34.7518 26.0097H47.1123L24.5004 1.41866L1.8853 26.0097H14.2458C14.4129 26.0097 14.5701 26.0823 14.6782 26.2109C14.7862 26.3362 14.8354 26.5044 14.8124 26.6726L13.9412 32.6753C13.8987 32.9622 13.653 33.17 13.3746 33.17V33.1667Z" fill="white"/>
</g>
<defs>
<clipPath id="clip0_45_3751">
<rect width="49" height="80" fill="white"/>
</clipPath>
</defs>
</svg>
