<svg width="95" height="94" viewBox="0 0 95 94" fill="none" xmlns="http://www.w3.org/2000/svg">
<ellipse cx="47.5" cy="47" rx="47.5" ry="47" fill="#522D6E"/>
<g clip-path="url(#clip0_22_95)">
<path d="M32.0938 73.0587C30.993 73.0587 29.9599 72.6312 29.1819 71.8532C28.404 71.0752 27.9766 70.042 27.9766 68.9411C27.9766 67.8402 28.404 66.807 29.1819 66.029L33.5575 61.6531C35.1625 60.0479 37.7762 60.0479 39.3843 61.6531C40.9925 63.2583 40.9894 65.8722 39.3843 67.4804L35.0088 71.8532C34.2308 72.6312 33.1977 73.0587 32.0969 73.0587H32.0938ZM36.4694 61.524C35.6914 61.524 34.9104 61.8192 34.3169 62.4127L29.9414 66.7885C29.3664 67.3636 29.0497 68.1262 29.0497 68.9411C29.0497 69.756 29.3664 70.5186 29.9414 71.0937C30.5164 71.6687 31.279 71.9855 32.0938 71.9855C32.9087 71.9855 33.6712 71.6687 34.2462 71.0937L38.6218 66.7209C39.8087 65.5339 39.8087 63.6027 38.6218 62.4157C38.0283 61.8223 37.2504 61.527 36.4694 61.527V61.524Z" fill="white"/>
<path d="M43.5895 78.9996C42.4887 78.9996 41.4525 78.5722 40.6745 77.7942L39.5553 76.6718C39.3462 76.4626 39.3462 76.1213 39.5553 75.9091C39.7643 75.6969 40.1057 75.7 40.3147 75.9091L41.434 77.0315C42.009 77.6066 42.7716 77.9233 43.5864 77.9233C44.4013 77.9233 45.1607 77.6066 45.7357 77.0315C46.8212 75.946 46.9288 74.2209 45.9879 73.0124C45.9817 73.0062 45.9787 73.0001 45.9725 72.9939C45.8987 72.8986 45.8218 72.8125 45.7327 72.7233L43.9093 70.8998C43.7002 70.6907 43.7002 70.3493 43.9093 70.1402C44.1184 69.9311 44.4597 69.9311 44.6688 70.1402L46.4922 71.9638C46.6059 72.0775 46.7105 72.1944 46.8089 72.3174C46.812 72.3236 46.8181 72.3297 46.8212 72.3328C48.1095 73.9687 47.9681 76.315 46.4922 77.7911C45.7142 78.5691 44.6811 78.9965 43.5803 78.9965L43.5895 78.9996Z" fill="white"/>
<path d="M52.5363 77.8528C51.4355 77.8528 50.3993 77.4222 49.6183 76.6442L43.899 70.9215C43.6899 70.7124 43.6899 70.371 43.899 70.1619C44.1081 69.9528 44.4494 69.9528 44.6585 70.1619L50.3778 75.8847C50.9558 76.4628 51.7215 76.7796 52.5332 76.7796C53.345 76.7796 54.1076 76.4628 54.6826 75.8847C55.2576 75.3097 55.5743 74.547 55.5743 73.7352C55.5743 72.9203 55.2576 72.1546 54.6826 71.5796L48.4652 65.3617C48.2561 65.1526 48.2561 64.8112 48.4652 64.6021C48.6743 64.393 49.0156 64.393 49.2247 64.6021L55.4421 70.82C56.22 71.598 56.6505 72.6343 56.6505 73.7352C56.6505 74.8361 56.22 75.8693 55.4421 76.6442C54.6641 77.4222 53.6279 77.8528 52.5302 77.8528H52.5363Z" fill="white"/>
<path d="M60.168 75.3068C59.0703 75.3068 58.0372 74.8763 57.2561 74.0983L48.4928 65.3373C48.2837 65.1282 48.2837 64.7868 48.4928 64.5777C48.7018 64.3686 49.0432 64.3686 49.2553 64.5777L58.0187 73.3387C58.5968 73.9168 59.3594 74.2336 60.168 74.2336C60.9767 74.2336 61.7455 73.9168 62.3205 73.3387C62.837 72.8221 63.1199 72.0779 63.123 71.2353C63.123 70.2851 62.754 69.3441 62.1329 68.723C61.9238 68.5139 61.9238 68.1725 62.1329 67.9634C62.342 67.7543 62.6833 67.7543 62.8924 67.9634C63.7226 68.7937 64.1992 69.9868 64.1992 71.2353C64.1992 72.3639 63.8025 73.3818 63.083 74.0983C62.302 74.8793 61.2688 75.3068 60.168 75.3068Z" fill="white"/>
<path d="M68.1063 72.9174C67.0608 72.9174 66.0154 72.5268 65.2128 71.7427L53.1194 59.9035C52.9072 59.6944 52.9041 59.3562 53.1102 59.1409C53.3192 58.9287 53.6575 58.9257 53.8696 59.1317L65.9631 70.9708C67.1562 72.1394 69.0872 72.1271 70.2649 70.9493C70.8429 70.3712 71.1627 69.5993 71.1596 68.7814C71.1596 67.9603 70.8368 67.1915 70.2556 66.6165L57.3473 53.8118C57.2336 53.698 57.0798 53.6273 56.9199 53.615L55.6777 53.5135C51.7634 53.1906 48.4056 50.5214 47.191 46.8128L43.7871 47.0619C42.4711 47.1572 41.3395 47.9752 40.8322 49.196L40.414 50.2016C39.8298 51.6131 38.5783 52.6002 37.0716 52.8493C35.7986 53.0584 34.5072 52.6986 33.5232 51.8621C32.5423 51.0288 31.9766 49.8111 31.9766 48.5195V46.3239C31.9766 44.8017 32.7453 43.4118 34.0367 42.6061L39.962 38.9006C40.4786 38.5777 41.072 38.4086 41.6809 38.4086L72.8324 37.7751C73.1399 37.7597 73.3766 38.0057 73.3828 38.3009C73.3889 38.5992 73.1522 38.8452 72.857 38.8514L41.6932 39.4849C41.275 39.4849 40.8783 39.5986 40.5339 39.8139L34.6087 43.5194C33.6339 44.1283 33.0528 45.1769 33.0528 46.3239V48.5195C33.0528 49.4912 33.4771 50.4107 34.2181 51.0411C34.9592 51.6715 35.9339 51.9421 36.8964 51.7853C38.0341 51.5977 38.975 50.8535 39.4178 49.7895L39.8359 48.784C40.5001 47.188 41.9822 46.1179 43.7072 45.9918L47.5416 45.7119C47.7968 45.6935 48.0305 45.8565 48.0981 46.1056C49.0698 49.5989 52.1539 52.1451 55.7668 52.4433L57.0091 52.5448C57.4211 52.5786 57.8116 52.7601 58.1068 53.0491L71.0151 65.8539C71.8023 66.6349 72.2359 67.6743 72.2389 68.7814C72.2389 69.8884 71.8115 70.9309 71.0274 71.715C70.2249 72.5176 69.1641 72.9205 68.1032 72.9205L68.1063 72.9174Z" fill="white"/>
<path d="M27.0298 67.9912C25.9751 67.9912 24.9204 67.5883 24.1179 66.7857C22.5128 65.1805 22.5128 62.5667 24.1179 60.9584L27.3403 57.7357C28.1183 56.9577 29.1514 56.5303 30.2522 56.5303C31.353 56.5303 32.3862 56.9577 33.1641 57.7357C33.9421 58.5137 34.3695 59.5469 34.3695 60.6478C34.3695 61.7487 33.9421 62.782 33.1641 63.56L29.9417 66.7827C29.1391 67.5853 28.0845 67.9881 27.0298 67.9881V67.9912ZM24.8774 66.0262C26.0643 67.2132 27.9953 67.2132 29.1822 66.0262L32.4047 62.8035C32.9797 62.2284 33.2964 61.4658 33.2964 60.6509C33.2964 59.836 32.9797 59.0734 32.4047 58.4983C31.8297 57.9233 31.0671 57.6066 30.2522 57.6066C29.4374 57.6066 28.6748 57.9233 28.0998 58.4983L24.8774 61.721C23.6905 62.908 23.6905 64.8392 24.8774 66.0262Z" fill="white"/>
<path d="M21.9907 62.9484C20.936 62.9484 19.8814 62.5455 19.0788 61.7429C17.4737 60.1377 17.4737 57.5239 19.0788 55.9156L19.8475 55.1468C20.6255 54.3688 21.6586 53.9414 22.7594 53.9414C23.8602 53.9414 24.8934 54.3688 25.6713 55.1468C26.4493 55.9248 26.8767 56.9581 26.8767 58.059C26.8767 59.1599 26.4493 60.1931 25.6713 60.9711L24.9026 61.7399C24.1001 62.5425 23.0454 62.9453 21.9907 62.9453V62.9484ZM22.7594 55.0208C21.9477 55.0208 21.182 55.3375 20.607 55.9125L19.8383 56.6813C18.6514 57.8683 18.6514 59.7995 19.8383 60.9865C21.0252 62.1735 22.9562 62.1735 24.1431 60.9865L24.9118 60.2177C25.4868 59.6426 25.8036 58.88 25.8036 58.0651C25.8036 57.2502 25.4868 56.4876 24.9118 55.9125C24.3368 55.3375 23.5743 55.0208 22.7594 55.0208Z" fill="white"/>
<path d="M37.1626 78.1203C36.1079 78.1203 35.0532 77.7174 34.2507 76.9148C32.6456 75.3096 32.6456 72.6958 34.2507 71.0875L35.0194 70.3187C35.7973 69.5407 36.8305 69.1133 37.9313 69.1133C39.0321 69.1133 40.0653 69.5407 40.8432 70.3187C41.6212 71.0967 42.0486 72.13 42.0486 73.2308C42.0486 74.3317 41.6212 75.365 40.8432 76.143L40.0745 76.9117C39.2719 77.7143 38.2173 78.1172 37.1626 78.1172V78.1203ZM37.9313 70.1926C37.1195 70.1926 36.3539 70.5094 35.7789 71.0844L35.0102 71.8532C33.8233 73.0402 33.8233 74.9714 35.0102 76.1583C36.1971 77.3453 38.1281 77.3453 39.315 76.1583L40.0837 75.3896C40.6587 74.8145 40.9754 74.0488 40.9754 73.237C40.9754 72.4252 40.6587 71.6595 40.0837 71.0844C39.5087 70.5094 38.7461 70.1926 37.9313 70.1926Z" fill="white"/>
<path d="M20.2213 56.0656C20.003 56.0656 19.797 55.9303 19.7171 55.712L19.2435 54.4174C18.6285 52.7353 17.5308 51.3084 16.0641 50.2875L15.6213 49.9831C15.4707 49.8785 15.3876 49.7063 15.3907 49.531C15.3938 49.2358 15.6336 48.999 15.9288 48.999C16.058 48.999 16.1779 49.0452 16.2732 49.122L16.6791 49.4019C18.3272 50.5519 19.5633 52.1572 20.2552 54.0453L20.7287 55.3399C20.8302 55.6197 20.6856 55.9272 20.4089 56.0287C20.3474 56.0502 20.2859 56.0625 20.2244 56.0625L20.2213 56.0656Z" fill="white"/>
<path d="M39.6384 39.4818C37.0831 39.4818 34.5679 39.039 32.1664 38.1688L26.7147 36.1945C26.4349 36.0931 26.2903 35.7856 26.3918 35.5057C26.4933 35.2259 26.8008 35.0814 27.0806 35.1828L32.5323 37.157C34.817 37.9842 37.2061 38.4055 39.6384 38.4055H40.9329C41.2311 38.4055 41.471 38.6454 41.471 38.9437C41.471 39.242 41.2311 39.4818 40.9329 39.4818H39.6537C39.6537 39.4818 39.6445 39.4818 39.6384 39.4818Z" fill="white"/>
<path d="M81.8822 57.1733C80.1757 57.1733 78.5737 56.1093 77.971 54.4118L72.3317 38.4859C71.5691 36.3333 72.7007 33.9593 74.8531 33.1967L80.231 31.2932C80.5108 31.1948 80.8183 31.3424 80.9167 31.6222C81.0151 31.9021 80.8706 32.2096 80.5877 32.308L75.2098 34.2115C73.6139 34.7773 72.7775 36.5332 73.3433 38.1261L78.9826 54.052C79.5484 55.648 81.3042 56.4844 82.8969 55.9186L88.2749 54.0151C88.5578 53.9167 88.8622 54.0643 88.9606 54.3442C89.059 54.624 88.9145 54.9315 88.6316 55.0299L83.2536 56.9334C82.7985 57.0933 82.3312 57.1702 81.873 57.1702L81.8822 57.1733Z" fill="white"/>
<path d="M13.2386 51.2782C12.3069 51.2782 11.409 50.9677 10.668 50.3772L6.20325 46.8286C5.96956 46.6441 5.93266 46.3058 6.11715 46.0721C6.30164 45.8384 6.63988 45.8015 6.87357 45.986L11.3383 49.5377C11.9809 50.0482 12.7835 50.2788 13.5952 50.1835C14.4101 50.0913 15.1388 49.6853 15.6493 49.0457L26.1622 35.8228C27.2138 34.4974 26.9955 32.5662 25.6703 31.5115L21.2055 27.9597C20.9719 27.7752 20.935 27.437 21.1194 27.2033C21.3039 26.9696 21.6422 26.9327 21.8759 27.1172L26.3406 30.6689C28.1302 32.0896 28.4284 34.7034 27.0048 36.4932L16.4918 49.7161C15.803 50.5833 14.819 51.1276 13.7182 51.2536C13.5583 51.2721 13.3984 51.2813 13.2416 51.2813L13.2386 51.2782Z" fill="white"/>
<path d="M66.7264 62.656C66.5358 62.656 66.3513 62.5545 66.2529 62.3762C66.1115 62.1148 66.2068 61.7888 66.4681 61.6474L78.5647 55.0605C78.826 54.9191 79.152 55.0144 79.2934 55.2758C79.4349 55.5372 79.3395 55.8631 79.0782 56.0046L66.9816 62.5914C66.8986 62.6345 66.8125 62.656 66.7234 62.656H66.7264Z" fill="white"/>
</g>
<defs>
<clipPath id="clip0_22_95">
<rect width="83" height="52" fill="white" transform="translate(6 27)"/>
</clipPath>
</defs>
</svg>
