<svg width="67" height="60" viewBox="0 0 67 60" fill="none" xmlns="http://www.w3.org/2000/svg">
<g clip-path="url(#clip0_45_3725)">
<path d="M48.0222 34.758C47.9058 34.758 47.792 34.7161 47.7021 34.6297L39.8129 27.153C38.8763 26.2655 37.4477 26.1084 36.3365 26.7707L33.6671 28.365C32.0903 29.3075 30.0638 28.9174 28.9579 27.4592C28.3627 26.6739 28.1219 25.6712 28.2992 24.7052C28.4764 23.7392 29.0558 22.8831 29.8918 22.3543L33.7677 19.9039C35.8868 18.5636 38.5059 18.1238 40.9531 18.6945L46.3634 19.9589C47.3423 20.1867 48.3741 20.1736 49.3476 19.9196C49.5963 19.8542 49.8477 20.0008 49.9138 20.2443C49.9799 20.4877 49.8318 20.7391 49.5857 20.8045C48.4666 21.0977 47.2788 21.1134 46.1491 20.8516L40.7388 19.5872C38.535 19.0741 36.1752 19.4694 34.265 20.6762L30.3892 23.1266C29.7596 23.5245 29.3416 24.1423 29.2093 24.8675C29.077 25.5927 29.249 26.3178 29.6961 26.9095C30.5162 27.9907 32.0163 28.2787 33.1856 27.5797L35.855 25.9854C37.3233 25.1084 39.2123 25.3152 40.4505 26.488L48.0592 33.6977L54.5648 28.9436C54.7711 28.7944 55.0595 28.8363 55.2129 29.0405C55.3637 29.2447 55.3214 29.53 55.1151 29.6819L48.2947 34.6637C48.2127 34.724 48.1174 34.7528 48.0195 34.7528L48.0222 34.758Z" fill="white"/>
<path d="M19.9122 38.2845C19.8329 38.2845 19.7535 38.2636 19.6821 38.2243L13.5125 34.6953C13.2903 34.5697 13.2162 34.2896 13.3432 34.0697C13.4702 33.8497 13.7533 33.7764 13.9755 33.9021L20.145 37.4311C20.3673 37.5567 20.4413 37.8368 20.3144 38.0567C20.2297 38.2033 20.0736 38.2871 19.9122 38.2871V38.2845Z" fill="white"/>
<path d="M15.5246 21.1865C15.3156 21.1865 15.1251 21.0451 15.0748 20.8331C15.0166 20.587 15.1701 20.3409 15.4188 20.2807L27.3557 17.4848C27.3716 17.4822 27.3875 17.4795 27.4034 17.4769C29.8109 17.1654 32.2448 17.2361 34.6312 17.6837L38.753 18.4586C39.0043 18.5058 39.1684 18.7466 39.1208 18.9953C39.0731 19.244 38.8297 19.4063 38.5784 19.3592L34.4565 18.5843C32.1734 18.1576 29.8479 18.0895 27.5436 18.3827L15.6304 21.1734C15.5934 21.1813 15.559 21.1865 15.5219 21.1865H15.5246Z" fill="white"/>
<path d="M21.5277 42.0964C21.1017 42.0964 20.6837 41.9864 20.3054 41.7691C19.7392 41.4445 19.3318 40.9209 19.1625 40.2952C18.9932 39.6695 19.0805 39.0151 19.4085 38.4548L21.6705 34.5777C21.9986 34.0175 22.5277 33.6143 23.16 33.4468C23.7923 33.2792 24.4537 33.3656 25.0199 33.6902C25.586 34.0149 25.9934 34.5384 26.1628 35.1641C26.3321 35.7898 26.2448 36.4443 25.9167 37.0045L23.6547 40.8816C23.3267 41.4419 22.7976 41.845 22.1653 42.0126C21.9536 42.0676 21.7393 42.0964 21.5277 42.0964ZM23.7976 34.2819C23.6653 34.2819 23.533 34.3002 23.4008 34.3342C23.0066 34.439 22.6785 34.6877 22.4748 35.0385L20.2128 38.9156C20.0091 39.2638 19.9562 39.6722 20.0594 40.0622C20.1625 40.4523 20.4165 40.7769 20.771 40.9785C21.1229 41.1801 21.5356 41.2324 21.9271 41.1303C22.3213 41.0256 22.6494 40.7769 22.8531 40.4261L25.1151 36.549C25.5358 35.8291 25.2844 34.9023 24.5569 34.4861C24.3214 34.3526 24.0595 34.2819 23.7976 34.2819Z" fill="white"/>
<path d="M24.723 45.0043C24.297 45.0043 23.879 44.8944 23.5007 44.6771C22.9345 44.3525 22.5271 43.8289 22.3578 43.2032C22.1885 42.5775 22.2758 41.923 22.6038 41.3628L25.4558 36.4752C25.7839 35.9149 26.313 35.5118 26.9453 35.3442C27.5776 35.1767 28.239 35.2631 28.8051 35.5877C29.9745 36.2579 30.3793 37.7422 29.702 38.902L26.85 43.7896C26.522 44.3499 25.9929 44.753 25.3606 44.9206C25.1489 44.9755 24.9346 45.0043 24.723 45.0043ZM27.5829 36.1793C27.4506 36.1793 27.3183 36.1977 27.186 36.2317C26.7918 36.3364 26.4638 36.5851 26.2601 36.9359L23.4081 41.8236C22.9875 42.5435 23.2388 43.4702 23.9663 43.8865C24.6939 44.3027 25.6304 44.054 26.0511 43.3341L28.903 38.4465C29.3237 37.7265 29.0724 36.7998 28.3448 36.3835C28.1094 36.25 27.8501 36.1793 27.5855 36.1793H27.5829Z" fill="white"/>
<path d="M28.3089 46.5336C27.883 46.5336 27.465 46.4237 27.0866 46.2064C26.5205 45.8818 26.1131 45.3582 25.9437 44.7325C25.7744 44.1068 25.8617 43.4524 26.1898 42.8921L28.4518 39.015C29.1264 37.8579 30.6291 37.46 31.8011 38.1275C32.9705 38.7977 33.3753 40.2821 32.698 41.4418L30.436 45.3189C30.1079 45.8792 29.5788 46.2823 28.9465 46.4499C28.7349 46.5048 28.5206 46.5336 28.3089 46.5336ZM30.5788 38.7192C30.0524 38.7192 29.5365 38.9888 29.256 39.4731L26.994 43.3503C26.5734 44.0702 26.8247 44.9969 27.5523 45.4132C27.9041 45.6148 28.3168 45.6671 28.711 45.565C29.1052 45.4603 29.4333 45.2116 29.637 44.8608L31.899 40.9837C32.3197 40.2637 32.0683 39.337 31.3408 38.9207C31.1 38.7846 30.8381 38.7192 30.5815 38.7192H30.5788Z" fill="white"/>
<path d="M32.2054 47.7612C31.79 47.7612 31.3693 47.6564 30.9831 47.4365C29.8137 46.769 29.4089 45.282 30.0862 44.1223L31.4064 41.8578C32.081 40.7006 33.5837 40.3027 34.7557 40.9703C35.9251 41.6405 36.3299 43.1248 35.6526 44.2846L34.3324 46.5491C33.88 47.3266 33.0546 47.7612 32.2054 47.7612ZM31.4461 46.6433C32.1736 47.0596 33.1101 46.8109 33.5308 46.0909L34.851 43.8264C35.2716 43.1065 35.0203 42.1798 34.2927 41.7635C33.5652 41.3473 32.6286 41.596 32.208 42.3159L30.8878 44.5804C30.4672 45.3003 30.7185 46.2271 31.4461 46.6433Z" fill="white"/>
<path d="M46.468 37.8189C46.4389 37.8189 46.4124 37.8189 46.3833 37.8189C45.6849 37.7979 45.0076 37.5414 44.5288 37.1147C44.3383 36.9445 44.3224 36.6565 44.4944 36.468C44.6663 36.2796 44.9574 36.2638 45.1478 36.434C45.4627 36.7141 45.9362 36.8921 46.4124 36.9052C46.8807 36.9183 47.3014 36.7691 47.5527 36.4942C48.1136 35.8764 48.0633 34.9182 47.4389 34.3632C47.2485 34.1931 47.2326 33.9051 47.4045 33.7166C47.5765 33.5281 47.8675 33.5124 48.058 33.6826C49.0633 34.5779 49.1454 36.1146 48.2432 37.1068C47.8278 37.5649 47.185 37.8241 46.4733 37.8241L46.468 37.8189Z" fill="white"/>
<path d="M43.9529 41.0279C43.3047 41.0279 42.6486 40.8107 42.1565 40.3735C41.966 40.2033 41.9501 39.9153 42.1221 39.7268C42.2941 39.5384 42.5851 39.5226 42.7756 39.6928C43.4317 40.2766 44.5666 40.2609 45.1116 39.6588C45.6725 39.0383 45.6222 38.0828 44.9979 37.5278L40.1538 33.2187C39.9633 33.0485 39.9474 32.7606 40.1194 32.5721C40.2913 32.3836 40.5824 32.3679 40.7728 32.538L45.6169 36.8471C46.1037 37.2791 46.3921 37.876 46.4265 38.5226C46.4609 39.1692 46.2387 39.7923 45.8021 40.274C45.3444 40.7766 44.6566 41.0306 43.9555 41.0306L43.9529 41.0279Z" fill="white"/>
<path d="M41.1329 43.9211C40.527 43.9211 39.9503 43.7038 39.4979 43.3006L34.6538 38.9915C34.4633 38.8214 34.4474 38.5334 34.6194 38.3449C34.7913 38.1564 35.0824 38.1407 35.2728 38.3109L40.1169 42.62C40.7413 43.175 41.7096 43.1252 42.2705 42.5074C42.8313 41.8896 42.7811 40.9314 42.1567 40.3764L37.3126 36.0673C37.1221 35.8972 37.1062 35.6092 37.2782 35.4207C37.4502 35.2322 37.7412 35.2165 37.9317 35.3867L42.7758 39.6958C43.2626 40.1277 43.5509 40.7246 43.5853 41.3712C43.6197 42.0179 43.3975 42.6409 42.961 43.1226C42.5245 43.6043 41.9212 43.8897 41.2678 43.9237C41.2228 43.9237 41.1778 43.9263 41.1355 43.9263L41.1329 43.9211Z" fill="white"/>
<path d="M38.3916 46.7688C37.8069 46.7688 37.2223 46.5646 36.754 46.1483L35.1772 44.7451C34.9867 44.575 34.9708 44.287 35.1428 44.0985C35.3148 43.91 35.6058 43.8943 35.7963 44.0645L37.3731 45.4677C37.6773 45.7373 38.0636 45.8735 38.4736 45.8525C38.8811 45.8316 39.2541 45.6536 39.5266 45.3551C40.0874 44.7373 40.0372 43.7791 39.4128 43.2241L37.971 41.9414C37.7805 41.7712 37.7646 41.4832 37.9366 41.2947C38.1085 41.1062 38.3996 41.0905 38.59 41.2607L40.0319 42.5435C41.0372 43.4388 41.1192 44.9755 40.2171 45.9703C39.7329 46.5018 39.0636 46.774 38.3916 46.774V46.7688Z" fill="white"/>
<path d="M12.3671 36.1189C12.3036 36.1189 12.2428 36.1163 12.1793 36.1058L0.403702 34.6058C0.149724 34.5743 -0.0301775 34.344 0.00421536 34.0926C0.0359626 33.8413 0.26613 33.6659 0.522754 33.6973L12.2984 35.1974C12.5973 35.2341 12.8724 35.0246 12.9121 34.7288L14.8461 19.8512C14.8646 19.7072 14.8249 19.5658 14.735 19.4506C14.645 19.3355 14.5154 19.2622 14.3725 19.2438L1.44343 17.5972C1.18945 17.5657 1.00955 17.3354 1.04394 17.084C1.07569 16.8327 1.30585 16.6547 1.56248 16.6887L14.4916 18.3354C14.8805 18.3852 15.2297 18.5815 15.4704 18.8904C15.7112 19.1993 15.817 19.5815 15.7667 19.9664L13.8328 34.844C13.7376 35.5796 13.1026 36.1163 12.3724 36.1163L12.3671 36.1189Z" fill="white"/>
<path d="M56.7051 31.467C56.1442 31.467 55.6019 31.1817 55.2923 30.6686L48.5381 19.4586C48.3079 19.0764 48.2444 18.6288 48.3635 18.1994C48.4799 17.7701 48.7603 17.4141 49.1545 17.1994L60.7396 10.83C60.9619 10.707 61.2449 10.7881 61.3693 11.008C61.4936 11.2279 61.4143 11.508 61.1894 11.6311L49.6043 18.0005C49.4323 18.0947 49.308 18.2518 49.2577 18.4377C49.2074 18.6262 49.2339 18.8225 49.3344 18.99L56.0887 30.2C56.2897 30.5324 56.7157 30.6476 57.0596 30.4591L66.3113 25.3699C66.5335 25.2469 66.8166 25.328 66.9409 25.5479C67.0653 25.7678 66.9859 26.0479 66.761 26.171L57.5093 31.2602C57.2527 31.4016 56.9776 31.467 56.7051 31.467Z" fill="white"/>
<path d="M10.9005 18.8019C10.6439 18.8019 10.4375 18.5977 10.4375 18.3437V0.458135C10.4375 0.204197 10.6439 0 10.9005 0H54.8467C55.1033 0 55.3096 0.204197 55.3096 0.458135V14.5949C55.3096 14.8488 55.1033 15.053 54.8467 15.053C54.59 15.053 54.3837 14.8488 54.3837 14.5949V0.91627H11.3635V18.3437C11.3635 18.5977 11.1571 18.8019 10.9005 18.8019Z" fill="white"/>
<path d="M54.8467 60.0001H10.9005C10.6439 60.0001 10.4375 59.7959 10.4375 59.542V35.6902C10.4375 35.4362 10.6439 35.232 10.9005 35.232C11.1571 35.232 11.3635 35.4362 11.3635 35.6902V59.0839H54.3837V29.3156C54.3837 29.0616 54.59 28.8574 54.8467 28.8574C55.1033 28.8574 55.3096 29.0616 55.3096 29.3156V59.542C55.3096 59.7959 55.1033 60.0001 54.8467 60.0001Z" fill="white"/>
<path d="M48.8682 5.97193H15.5177C15.261 5.97193 15.0547 5.76774 15.0547 5.5138C15.0547 5.25986 15.261 5.05566 15.5177 5.05566H48.8682C49.1248 5.05566 49.3312 5.25986 49.3312 5.5138C49.3312 5.76774 49.1248 5.97193 48.8682 5.97193Z" fill="white"/>
<path d="M48.8682 12.095H15.5177C15.261 12.095 15.0547 11.8908 15.0547 11.6368C15.0547 11.3829 15.261 11.1787 15.5177 11.1787H48.8682C49.1248 11.1787 49.3312 11.3829 49.3312 11.6368C49.3312 11.8908 49.1248 12.095 48.8682 12.095Z" fill="white"/>
<path d="M48.8682 50.6878H15.5177C15.261 50.6878 15.0547 50.4836 15.0547 50.2296C15.0547 49.9757 15.261 49.7715 15.5177 49.7715H48.8682C49.1248 49.7715 49.3312 49.9757 49.3312 50.2296C49.3312 50.4836 49.1248 50.6878 48.8682 50.6878Z" fill="white"/>
<path d="M48.8682 55.801H15.5177C15.261 55.801 15.0547 55.5968 15.0547 55.3429C15.0547 55.089 15.261 54.8848 15.5177 54.8848H48.8682C49.1248 54.8848 49.3312 55.089 49.3312 55.3429C49.3312 55.5968 49.1248 55.801 48.8682 55.801Z" fill="white"/>
</g>
<defs>
<clipPath id="clip0_45_3725">
<rect width="67" height="60" fill="white"/>
</clipPath>
</defs>
</svg>
