<svg width="95" height="94" viewBox="0 0 95 94" fill="none" xmlns="http://www.w3.org/2000/svg">
<ellipse cx="47.5" cy="47" rx="47.5" ry="47" fill="#522D6E"/>
<g clip-path="url(#clip0_22_95)">
<path d="M63.0222 52.758C62.9058 52.758 62.792 52.7161 62.7021 52.6297L54.8129 45.153C53.8763 44.2655 52.4477 44.1084 51.3365 44.7707L48.6671 46.365C47.0903 47.3075 45.0638 46.9174 43.9579 45.4592C43.3627 44.6739 43.1219 43.6712 43.2992 42.7052C43.4764 41.7392 44.0558 40.8831 44.8918 40.3543L48.7677 37.9039C50.8868 36.5636 53.5059 36.1238 55.9531 36.6945L61.3634 37.9589C62.3423 38.1867 63.3741 38.1736 64.3476 37.9196C64.5963 37.8542 64.8477 38.0008 64.9138 38.2443C64.9799 38.4877 64.8318 38.7391 64.5857 38.8045C63.4666 39.0977 62.2788 39.1134 61.1491 38.8516L55.7388 37.5872C53.535 37.0741 51.1752 37.4694 49.265 38.6762L45.3892 41.1266C44.7596 41.5245 44.3416 42.1423 44.2093 42.8675C44.077 43.5927 44.249 44.3178 44.6961 44.9095C45.5162 45.9907 47.0163 46.2787 48.1856 45.5797L50.855 43.9854C52.3233 43.1084 54.2123 43.3152 55.4505 44.488L63.0592 51.6977L69.5648 46.9436C69.7711 46.7944 70.0595 46.8363 70.2129 47.0405C70.3637 47.2447 70.3214 47.53 70.1151 47.6819L63.2947 52.6637C63.2127 52.724 63.1174 52.7528 63.0195 52.7528L63.0222 52.758Z" fill="white"/>
<path d="M34.9122 56.2845C34.8329 56.2845 34.7535 56.2636 34.6821 56.2243L28.5125 52.6953C28.2903 52.5697 28.2162 52.2896 28.3432 52.0697C28.4702 51.8497 28.7533 51.7764 28.9755 51.9021L35.145 55.4311C35.3673 55.5567 35.4413 55.8368 35.3144 56.0567C35.2297 56.2033 35.0736 56.2871 34.9122 56.2871V56.2845Z" fill="white"/>
<path d="M30.5246 39.1865C30.3156 39.1865 30.1251 39.0451 30.0748 38.8331C30.0166 38.587 30.1701 38.3409 30.4188 38.2807L42.3557 35.4848C42.3716 35.4822 42.3875 35.4795 42.4034 35.4769C44.8109 35.1654 47.2448 35.2361 49.6312 35.6837L53.753 36.4586C54.0043 36.5058 54.1684 36.7466 54.1208 36.9953C54.0731 37.244 53.8297 37.4063 53.5784 37.3592L49.4565 36.5843C47.1734 36.1576 44.8479 36.0895 42.5436 36.3827L30.6304 39.1734C30.5934 39.1813 30.559 39.1865 30.5219 39.1865H30.5246Z" fill="white"/>
<path d="M36.5277 60.0964C36.1017 60.0964 35.6837 59.9864 35.3054 59.7691C34.7392 59.4445 34.3318 58.9209 34.1625 58.2952C33.9932 57.6695 34.0805 57.0151 34.4085 56.4548L36.6705 52.5777C36.9986 52.0175 37.5277 51.6143 38.16 51.4468C38.7923 51.2792 39.4537 51.3656 40.0199 51.6902C40.586 52.0149 40.9934 52.5384 41.1628 53.1641C41.3321 53.7898 41.2448 54.4443 40.9167 55.0045L38.6547 58.8816C38.3267 59.4419 37.7976 59.845 37.1653 60.0126C36.9536 60.0676 36.7393 60.0964 36.5277 60.0964ZM38.7976 52.2819C38.6653 52.2819 38.533 52.3002 38.4008 52.3342C38.0066 52.439 37.6785 52.6877 37.4748 53.0385L35.2128 56.9156C35.0091 57.2638 34.9562 57.6722 35.0594 58.0622C35.1625 58.4523 35.4165 58.7769 35.771 58.9785C36.1229 59.1801 36.5356 59.2324 36.9271 59.1303C37.3213 59.0256 37.6494 58.7769 37.8531 58.4261L40.1151 54.549C40.5358 53.8291 40.2844 52.9023 39.5569 52.4861C39.3214 52.3526 39.0595 52.2819 38.7976 52.2819Z" fill="white"/>
<path d="M39.723 63.0043C39.297 63.0043 38.879 62.8944 38.5007 62.6771C37.9345 62.3525 37.5271 61.8289 37.3578 61.2032C37.1885 60.5775 37.2758 59.923 37.6038 59.3628L40.4558 54.4752C40.7839 53.9149 41.313 53.5118 41.9453 53.3442C42.5776 53.1767 43.239 53.2631 43.8051 53.5877C44.9745 54.2579 45.3793 55.7422 44.702 56.902L41.85 61.7896C41.522 62.3499 40.9929 62.753 40.3606 62.9206C40.1489 62.9755 39.9346 63.0043 39.723 63.0043ZM42.5829 54.1793C42.4506 54.1793 42.3183 54.1977 42.186 54.2317C41.7918 54.3364 41.4638 54.5851 41.2601 54.9359L38.4081 59.8236C37.9875 60.5435 38.2388 61.4702 38.9663 61.8865C39.6939 62.3027 40.6304 62.054 41.0511 61.3341L43.903 56.4465C44.3237 55.7265 44.0724 54.7998 43.3448 54.3835C43.1094 54.25 42.8501 54.1793 42.5855 54.1793H42.5829Z" fill="white"/>
<path d="M43.3089 64.5336C42.883 64.5336 42.465 64.4237 42.0866 64.2064C41.5205 63.8818 41.1131 63.3582 40.9437 62.7325C40.7744 62.1068 40.8617 61.4524 41.1898 60.8921L43.4518 57.015C44.1264 55.8579 45.6291 55.46 46.8011 56.1275C47.9705 56.7977 48.3753 58.2821 47.698 59.4418L45.436 63.3189C45.1079 63.8792 44.5788 64.2823 43.9465 64.4499C43.7349 64.5048 43.5206 64.5336 43.3089 64.5336ZM45.5788 56.7192C45.0524 56.7192 44.5365 56.9888 44.256 57.4731L41.994 61.3503C41.5734 62.0702 41.8247 62.9969 42.5523 63.4132C42.9041 63.6148 43.3168 63.6671 43.711 63.565C44.1052 63.4603 44.4333 63.2116 44.637 62.8608L46.899 58.9837C47.3197 58.2637 47.0683 57.337 46.3408 56.9207C46.1 56.7846 45.8381 56.7192 45.5815 56.7192H45.5788Z" fill="white"/>
<path d="M47.2054 65.7612C46.79 65.7612 46.3693 65.6564 45.9831 65.4365C44.8137 64.769 44.4089 63.282 45.0862 62.1223L46.4064 59.8578C47.081 58.7006 48.5837 58.3027 49.7557 58.9703C50.9251 59.6405 51.3299 61.1248 50.6526 62.2846L49.3324 64.5491C48.88 65.3266 48.0546 65.7612 47.2054 65.7612ZM46.4461 64.6433C47.1736 65.0596 48.1101 64.8109 48.5308 64.0909L49.851 61.8264C50.2716 61.1065 50.0203 60.1798 49.2927 59.7635C48.5652 59.3473 47.6286 59.596 47.208 60.3159L45.8878 62.5804C45.4672 63.3003 45.7185 64.2271 46.4461 64.6433Z" fill="white"/>
<path d="M61.468 55.8189C61.4389 55.8189 61.4124 55.8189 61.3833 55.8189C60.6849 55.7979 60.0076 55.5414 59.5288 55.1147C59.3383 54.9445 59.3224 54.6565 59.4944 54.468C59.6663 54.2796 59.9574 54.2638 60.1478 54.434C60.4627 54.7141 60.9362 54.8921 61.4124 54.9052C61.8807 54.9183 62.3014 54.7691 62.5527 54.4942C63.1136 53.8764 63.0633 52.9182 62.4389 52.3632C62.2485 52.1931 62.2326 51.9051 62.4045 51.7166C62.5765 51.5281 62.8675 51.5124 63.058 51.6826C64.0633 52.5779 64.1454 54.1146 63.2432 55.1068C62.8278 55.5649 62.185 55.8241 61.4733 55.8241L61.468 55.8189Z" fill="white"/>
<path d="M58.9529 59.0279C58.3047 59.0279 57.6486 58.8107 57.1565 58.3735C56.966 58.2033 56.9501 57.9153 57.1221 57.7268C57.2941 57.5384 57.5851 57.5226 57.7756 57.6928C58.4317 58.2766 59.5666 58.2609 60.1116 57.6588C60.6725 57.0383 60.6222 56.0828 59.9979 55.5278L55.1538 51.2187C54.9633 51.0485 54.9474 50.7606 55.1194 50.5721C55.2913 50.3836 55.5824 50.3679 55.7728 50.538L60.6169 54.8471C61.1037 55.2791 61.3921 55.876 61.4265 56.5226C61.4609 57.1692 61.2387 57.7923 60.8021 58.274C60.3444 58.7766 59.6566 59.0306 58.9555 59.0306L58.9529 59.0279Z" fill="white"/>
<path d="M56.1329 61.9211C55.527 61.9211 54.9503 61.7038 54.4979 61.3006L49.6538 56.9915C49.4633 56.8214 49.4474 56.5334 49.6194 56.3449C49.7913 56.1564 50.0824 56.1407 50.2728 56.3109L55.1169 60.62C55.7413 61.175 56.7096 61.1252 57.2705 60.5074C57.8313 59.8896 57.7811 58.9314 57.1567 58.3764L52.3126 54.0673C52.1221 53.8972 52.1062 53.6092 52.2782 53.4207C52.4502 53.2322 52.7412 53.2165 52.9317 53.3867L57.7758 57.6958C58.2626 58.1277 58.5509 58.7246 58.5853 59.3712C58.6197 60.0179 58.3975 60.6409 57.961 61.1226C57.5245 61.6043 56.9212 61.8897 56.2678 61.9237C56.2228 61.9237 56.1778 61.9263 56.1355 61.9263L56.1329 61.9211Z" fill="white"/>
<path d="M53.3916 64.7688C52.8069 64.7688 52.2223 64.5646 51.754 64.1483L50.1772 62.7451C49.9867 62.575 49.9708 62.287 50.1428 62.0985C50.3148 61.91 50.6058 61.8943 50.7963 62.0645L52.3731 63.4677C52.6773 63.7373 53.0636 63.8735 53.4736 63.8525C53.8811 63.8316 54.2541 63.6536 54.5266 63.3551C55.0874 62.7373 55.0372 61.7791 54.4128 61.2241L52.971 59.9414C52.7805 59.7712 52.7646 59.4832 52.9366 59.2947C53.1085 59.1062 53.3996 59.0905 53.59 59.2607L55.0319 60.5435C56.0372 61.4388 56.1192 62.9755 55.2171 63.9703C54.7329 64.5018 54.0636 64.774 53.3916 64.774V64.7688Z" fill="white"/>
<path d="M27.3671 54.1189C27.3036 54.1189 27.2428 54.1163 27.1793 54.1058L15.4037 52.6058C15.1497 52.5743 14.9698 52.344 15.0042 52.0926C15.036 51.8413 15.2661 51.6659 15.5228 51.6973L27.2984 53.1974C27.5973 53.2341 27.8724 53.0246 27.9121 52.7288L29.8461 37.8512C29.8646 37.7072 29.8249 37.5658 29.735 37.4506C29.645 37.3355 29.5154 37.2622 29.3725 37.2438L16.4434 35.5972C16.1894 35.5657 16.0095 35.3354 16.0439 35.084C16.0757 34.8327 16.3059 34.6547 16.5625 34.6887L29.4916 36.3354C29.8805 36.3852 30.2297 36.5815 30.4704 36.8904C30.7112 37.1993 30.817 37.5815 30.7667 37.9664L28.8328 52.844C28.7376 53.5796 28.1026 54.1163 27.3724 54.1163L27.3671 54.1189Z" fill="white"/>
<path d="M71.7051 49.467C71.1442 49.467 70.6019 49.1817 70.2923 48.6686L63.5381 37.4586C63.3079 37.0764 63.2444 36.6288 63.3635 36.1994C63.4799 35.7701 63.7603 35.4141 64.1545 35.1994L75.7396 28.83C75.9619 28.707 76.2449 28.7881 76.3693 29.008C76.4936 29.2279 76.4143 29.508 76.1894 29.6311L64.6043 36.0005C64.4323 36.0947 64.308 36.2518 64.2577 36.4377C64.2074 36.6262 64.2339 36.8225 64.3344 36.99L71.0887 48.2C71.2897 48.5324 71.7157 48.6476 72.0596 48.4591L81.3113 43.3699C81.5335 43.2469 81.8166 43.328 81.9409 43.5479C82.0653 43.7678 81.9859 44.0479 81.761 44.171L72.5093 49.2602C72.2527 49.4016 71.9776 49.467 71.7051 49.467Z" fill="white"/>
<path d="M25.9005 36.8019C25.6439 36.8019 25.4375 36.5977 25.4375 36.3437V18.4581C25.4375 18.2042 25.6439 18 25.9005 18H69.8467C70.1033 18 70.3096 18.2042 70.3096 18.4581V32.5949C70.3096 32.8488 70.1033 33.053 69.8467 33.053C69.59 33.053 69.3837 32.8488 69.3837 32.5949V18.9163H26.3635V36.3437C26.3635 36.5977 26.1571 36.8019 25.9005 36.8019Z" fill="white"/>
<path d="M69.8467 78.0001H25.9005C25.6439 78.0001 25.4375 77.7959 25.4375 77.542V53.6902C25.4375 53.4362 25.6439 53.232 25.9005 53.232C26.1571 53.232 26.3635 53.4362 26.3635 53.6902V77.0839H69.3837V47.3156C69.3837 47.0616 69.59 46.8574 69.8467 46.8574C70.1033 46.8574 70.3096 47.0616 70.3096 47.3156V77.542C70.3096 77.7959 70.1033 78.0001 69.8467 78.0001Z" fill="white"/>
<path d="M63.8682 23.9719H30.5177C30.261 23.9719 30.0547 23.7677 30.0547 23.5138C30.0547 23.2599 30.261 23.0557 30.5177 23.0557H63.8682C64.1248 23.0557 64.3312 23.2599 64.3312 23.5138C64.3312 23.7677 64.1248 23.9719 63.8682 23.9719Z" fill="white"/>
<path d="M63.8682 30.095H30.5177C30.261 30.095 30.0547 29.8908 30.0547 29.6368C30.0547 29.3829 30.261 29.1787 30.5177 29.1787H63.8682C64.1248 29.1787 64.3312 29.3829 64.3312 29.6368C64.3312 29.8908 64.1248 30.095 63.8682 30.095Z" fill="white"/>
<path d="M63.8682 68.6878H30.5177C30.261 68.6878 30.0547 68.4836 30.0547 68.2296C30.0547 67.9757 30.261 67.7715 30.5177 67.7715H63.8682C64.1248 67.7715 64.3312 67.9757 64.3312 68.2296C64.3312 68.4836 64.1248 68.6878 63.8682 68.6878Z" fill="white"/>
<path d="M63.8682 73.801H30.5177C30.261 73.801 30.0547 73.5968 30.0547 73.3429C30.0547 73.089 30.261 72.8848 30.5177 72.8848H63.8682C64.1248 72.8848 64.3312 73.089 64.3312 73.3429C64.3312 73.5968 64.1248 73.801 63.8682 73.801Z" fill="white"/>
</g>
<defs>
<clipPath id="clip0_22_95">
<rect width="67" height="60" fill="white" transform="translate(15 18)"/>
</clipPath>
</defs>
</svg>
