<svg width="95" height="94" viewBox="0 0 95 94" fill="none" xmlns="http://www.w3.org/2000/svg">
<ellipse cx="47.5" cy="47" rx="47.5" ry="47" fill="#522D6E"/>
<g clip-path="url(#clip0_22_95)">
<path d="M75.539 75.0004C75.3203 75.0004 75.128 74.8448 75.0858 74.6233L72.4063 60.2481C71.6449 56.1764 68.5439 52.959 64.5023 52.0519L52.4196 49.3409C52.0007 49.2459 51.6766 48.9268 51.5897 48.526C51.5818 48.4864 51.5739 48.4442 51.5712 48.4047L51.1813 43.9611C51.1602 43.7079 51.3473 43.4837 51.6002 43.46C51.8558 43.4363 52.0771 43.6262 52.1008 43.8793L52.4907 48.3282C52.5013 48.3757 52.5566 48.4231 52.6225 48.4363L64.7052 51.1473C69.1051 52.1362 72.4854 55.641 73.3127 60.0741L75.9922 74.4492C76.0396 74.6997 75.8736 74.9397 75.6233 74.9872C75.5943 74.9925 75.5653 74.9951 75.539 74.9951V75.0004Z" fill="white"/>
<path d="M52.047 75.0004C51.7914 75.0004 51.5859 74.7947 51.5859 74.5389V48.65C51.5859 48.3942 51.7914 48.1885 52.047 48.1885C52.3026 48.1885 52.5081 48.3942 52.5081 48.65V74.5389C52.5081 74.7947 52.3026 75.0004 52.047 75.0004Z" fill="white"/>
<path d="M57.8355 61.7112C57.7275 61.7112 57.6221 61.6743 57.5352 61.6005L51.7468 56.6321C51.5544 56.466 51.5307 56.1759 51.6967 55.9807C51.8627 55.7882 52.1525 55.7645 52.3475 55.9306L57.1584 60.0604L55.3457 49.7069C55.301 49.4564 55.4696 49.2164 55.7199 49.1716C55.9728 49.1294 56.2099 49.2955 56.2547 49.5461L58.2887 61.168C58.3229 61.3605 58.2307 61.553 58.0621 61.648C57.991 61.6875 57.9119 61.7086 57.8329 61.7086L57.8355 61.7112Z" fill="white"/>
<path d="M18.4613 75C18.4323 75 18.4059 75 18.3769 74.9921C18.1267 74.9446 17.9607 74.7046 18.0081 74.4541L20.6876 60.079C21.5175 55.6433 24.8952 52.1411 29.2951 51.1522L41.3778 48.4412C41.4436 48.4254 41.499 48.3805 41.5095 48.3331L41.8994 43.8842C41.9205 43.631 42.1471 43.4412 42.4 43.4649C42.653 43.486 42.84 43.7101 42.8189 43.966L42.429 48.4148C42.429 48.4491 42.4211 48.4887 42.4106 48.5309C42.3236 48.9317 41.9969 49.2508 41.5806 49.3457L29.498 52.0567C25.459 52.9639 22.3553 56.1812 21.5939 60.253L18.9144 74.6281C18.8723 74.8497 18.6799 75.0053 18.4613 75.0053V75Z" fill="white"/>
<path d="M41.9454 75.0004C41.6899 75.0004 41.4844 74.7947 41.4844 74.5389V48.65C41.4844 48.3942 41.6899 48.1885 41.9454 48.1885C42.201 48.1885 42.4065 48.3942 42.4065 48.65V74.5389C42.4065 74.7947 42.201 75.0004 41.9454 75.0004Z" fill="white"/>
<path d="M36.1652 61.7115C36.0862 61.7115 36.0071 61.6904 35.936 61.6509C35.7674 61.5533 35.6778 61.3634 35.7094 61.1709L37.7434 49.549C37.7882 49.2985 38.0253 49.1323 38.2782 49.1745C38.5285 49.2193 38.6971 49.4567 38.6524 49.7099L36.8397 60.0633L41.6506 55.9335C41.843 55.7674 42.1354 55.7911 42.3014 55.9836C42.4674 56.1762 42.4437 56.4689 42.2513 56.635L36.4656 61.6034C36.3813 61.6773 36.2732 61.7142 36.1652 61.7142V61.7115Z" fill="white"/>
<path d="M46.9998 53.9082C44.9764 53.9082 43.0979 53.4388 41.712 52.5896C41.496 52.4577 41.4275 52.1729 41.5592 51.954C41.6909 51.7352 41.9755 51.6692 42.1942 51.8011C43.4193 52.5527 45.1714 52.9852 46.9998 52.9852C48.8283 52.9852 50.5804 52.5527 51.8108 51.8011C52.0268 51.6692 52.3114 51.7378 52.4457 51.954C52.5775 52.1703 52.509 52.4551 52.2929 52.5896C50.9018 53.4388 49.0233 53.9082 47.0025 53.9082H46.9998Z" fill="white"/>
<path d="M56.8193 46.7244C56.569 46.7244 56.3187 46.6638 56.0869 46.5425L47.5189 42.0329C47.3292 41.9327 47.1052 41.9327 46.9155 42.0329L38.3475 46.5425C37.8153 46.8246 37.1804 46.7772 36.6929 46.4238C36.2055 46.0704 35.9658 45.4797 36.0685 44.8863L37.7047 35.3372C37.7416 35.1262 37.6704 34.9126 37.5176 34.7623L30.5857 27.998C30.1537 27.5761 30.0008 26.959 30.1879 26.3867C30.375 25.8144 30.8598 25.4031 31.4552 25.316L41.0349 23.9236C41.2457 23.892 41.4301 23.7601 41.5223 23.5676L45.8063 14.8755C46.0724 14.3349 46.6125 14 47.2159 14C47.8192 14 48.3593 14.3349 48.6254 14.8755L52.9094 23.565C53.0043 23.7575 53.1861 23.8893 53.3969 23.921L62.9766 25.3134C63.572 25.4004 64.0594 25.8092 64.2439 26.3841C64.4309 26.9563 64.2781 27.5761 63.846 27.9954L56.9142 34.7597C56.7614 34.91 56.6902 35.1236 56.7271 35.3346L58.3632 44.8837C58.466 45.4771 58.2262 46.0678 57.7388 46.4212C57.4622 46.6216 57.1408 46.7218 56.8167 46.7218L56.8193 46.7244ZM47.2159 41.0361C47.4662 41.0361 47.7191 41.0968 47.9457 41.2181L56.5137 45.7276C56.7376 45.8463 56.9932 45.8278 57.1961 45.6775C57.4016 45.5298 57.4964 45.2925 57.4543 45.0419L55.8181 35.4928C55.7312 34.9812 55.8998 34.4617 56.2687 34.1004L63.2005 27.3361C63.3823 27.1594 63.4429 26.9115 63.3639 26.6715C63.2848 26.4315 63.0899 26.2654 62.8396 26.2285L53.2599 24.8361C52.7487 24.7622 52.3061 24.4405 52.0769 23.9764L47.7982 15.2843C47.6875 15.0575 47.4688 14.923 47.2159 14.923C46.963 14.923 46.7469 15.0575 46.6336 15.2843L42.3496 23.9737C42.1204 24.4379 41.6778 24.7596 41.1666 24.8334L31.5869 26.2258C31.3366 26.2628 31.1417 26.4263 31.0626 26.6689C30.9836 26.9089 31.0468 27.1594 31.226 27.3334L38.1578 34.0977C38.5293 34.459 38.6979 34.9786 38.6084 35.4902L36.9722 45.0393C36.9301 45.2898 37.0249 45.5272 37.2304 45.6749C37.4359 45.8225 37.6915 45.841 37.9128 45.725L46.4808 41.2154C46.71 41.0941 46.9603 41.0335 47.2106 41.0335L47.2159 41.0361Z" fill="white"/>
</g>
<defs>
<clipPath id="clip0_22_95">
<rect width="58" height="61" fill="white" transform="translate(18 14)"/>
</clipPath>
</defs>
</svg>
