<svg width="246" height="12" viewBox="0 0 246 12" fill="none" xmlns="http://www.w3.org/2000/svg">
<path d="M0.211938 0.431999H1.71194V3.84H5.61194V0.431999H7.11194V9H5.61194V5.136H1.71194V9H0.211938V0.431999ZM12.9761 5.352C12.9601 5.136 12.9121 4.928 12.8321 4.728C12.7601 4.528 12.6561 4.356 12.5201 4.212C12.3921 4.06 12.2321 3.94 12.0401 3.852C11.8561 3.756 11.6481 3.708 11.4161 3.708C11.1761 3.708 10.9561 3.752 10.7561 3.84C10.5641 3.92 10.3961 4.036 10.2521 4.188C10.1161 4.332 10.0041 4.504 9.91609 4.704C9.83609 4.904 9.79209 5.12 9.78409 5.352H12.9761ZM9.78409 6.252C9.78409 6.492 9.81609 6.724 9.88009 6.948C9.95209 7.172 10.0561 7.368 10.1921 7.536C10.3281 7.704 10.5001 7.84 10.7081 7.944C10.9161 8.04 11.1641 8.088 11.4521 8.088C11.8521 8.088 12.1721 8.004 12.4121 7.836C12.6601 7.66 12.8441 7.4 12.9641 7.056H14.2601C14.1881 7.392 14.0641 7.692 13.8881 7.956C13.7121 8.22 13.5001 8.444 13.2521 8.628C13.0041 8.804 12.7241 8.936 12.4121 9.024C12.1081 9.12 11.7881 9.168 11.4521 9.168C10.9641 9.168 10.5321 9.088 10.1561 8.928C9.78009 8.768 9.46009 8.544 9.19609 8.256C8.94009 7.968 8.74409 7.624 8.60809 7.224C8.48009 6.824 8.41609 6.384 8.41609 5.904C8.41609 5.464 8.48409 5.048 8.62009 4.656C8.76409 4.256 8.96409 3.908 9.22009 3.612C9.48409 3.308 9.80009 3.068 10.1681 2.892C10.5361 2.716 10.9521 2.628 11.4161 2.628C11.9041 2.628 12.3401 2.732 12.7241 2.94C13.1161 3.14 13.4401 3.408 13.6961 3.744C13.9521 4.08 14.1361 4.468 14.2481 4.908C14.3681 5.34 14.4001 5.788 14.3441 6.252H9.78409ZM20.5801 7.62C20.5801 7.788 20.6001 7.908 20.6401 7.98C20.6881 8.052 20.7761 8.088 20.9041 8.088C20.9441 8.088 20.9921 8.088 21.0481 8.088C21.1041 8.088 21.1681 8.08 21.2401 8.064V9.012C21.1921 9.028 21.1281 9.044 21.0481 9.06C20.9761 9.084 20.9001 9.104 20.8201 9.12C20.7401 9.136 20.6601 9.148 20.5801 9.156C20.5001 9.164 20.4321 9.168 20.3761 9.168C20.0961 9.168 19.8641 9.112 19.6801 9C19.4961 8.888 19.3761 8.692 19.3201 8.412C19.0481 8.676 18.7121 8.868 18.3121 8.988C17.9201 9.108 17.5401 9.168 17.1721 9.168C16.8921 9.168 16.6241 9.128 16.3681 9.048C16.1121 8.976 15.8841 8.868 15.6841 8.724C15.4921 8.572 15.3361 8.384 15.2161 8.16C15.1041 7.928 15.0481 7.66 15.0481 7.356C15.0481 6.972 15.1161 6.66 15.2521 6.42C15.3961 6.18 15.5801 5.992 15.8041 5.856C16.0361 5.72 16.2921 5.624 16.5721 5.568C16.8601 5.504 17.1481 5.456 17.4361 5.424C17.6841 5.376 17.9201 5.344 18.1441 5.328C18.3681 5.304 18.5641 5.268 18.7321 5.22C18.9081 5.172 19.0441 5.1 19.1401 5.004C19.2441 4.9 19.2961 4.748 19.2961 4.548C19.2961 4.372 19.2521 4.228 19.1641 4.116C19.0841 4.004 18.9801 3.92 18.8521 3.864C18.7321 3.8 18.5961 3.76 18.4441 3.744C18.2921 3.72 18.1481 3.708 18.0121 3.708C17.6281 3.708 17.3121 3.788 17.0641 3.948C16.8161 4.108 16.6761 4.356 16.6441 4.692H15.2761C15.3001 4.292 15.3961 3.96 15.5641 3.696C15.7321 3.432 15.9441 3.22 16.2001 3.06C16.4641 2.9 16.7601 2.788 17.0881 2.724C17.4161 2.66 17.7521 2.628 18.0961 2.628C18.4001 2.628 18.7001 2.66 18.9961 2.724C19.2921 2.788 19.5561 2.892 19.7881 3.036C20.0281 3.18 20.2201 3.368 20.3641 3.6C20.5081 3.824 20.5801 4.1 20.5801 4.428V7.62ZM19.2121 5.892C19.0041 6.028 18.7481 6.112 18.4441 6.144C18.1401 6.168 17.8361 6.208 17.5321 6.264C17.3881 6.288 17.2481 6.324 17.1121 6.372C16.9761 6.412 16.8561 6.472 16.7521 6.552C16.6481 6.624 16.5641 6.724 16.5001 6.852C16.4441 6.972 16.4161 7.12 16.4161 7.296C16.4161 7.448 16.4601 7.576 16.5481 7.68C16.6361 7.784 16.7401 7.868 16.8601 7.932C16.9881 7.988 17.1241 8.028 17.2681 8.052C17.4201 8.076 17.5561 8.088 17.6761 8.088C17.8281 8.088 17.9921 8.068 18.1681 8.028C18.3441 7.988 18.5081 7.92 18.6601 7.824C18.8201 7.728 18.9521 7.608 19.0561 7.464C19.1601 7.312 19.2121 7.128 19.2121 6.912V5.892ZM27.896 9H26.6V8.16H26.576C26.392 8.52 26.124 8.78 25.772 8.94C25.42 9.092 25.048 9.168 24.656 9.168C24.168 9.168 23.74 9.084 23.372 8.916C23.012 8.74 22.712 8.504 22.472 8.208C22.232 7.912 22.052 7.564 21.932 7.164C21.812 6.756 21.752 6.32 21.752 5.856C21.752 5.296 21.828 4.812 21.98 4.404C22.132 3.996 22.332 3.66 22.58 3.396C22.836 3.132 23.124 2.94 23.444 2.82C23.772 2.692 24.104 2.628 24.44 2.628C24.632 2.628 24.828 2.648 25.028 2.688C25.228 2.72 25.42 2.776 25.604 2.856C25.788 2.936 25.956 3.04 26.108 3.168C26.268 3.288 26.4 3.432 26.504 3.6H26.528V0.431999H27.896V9ZM23.12 5.964C23.12 6.228 23.152 6.488 23.216 6.744C23.288 7 23.392 7.228 23.528 7.428C23.672 7.628 23.852 7.788 24.068 7.908C24.284 8.028 24.54 8.088 24.836 8.088C25.14 8.088 25.4 8.024 25.616 7.896C25.84 7.768 26.02 7.6 26.156 7.392C26.3 7.184 26.404 6.952 26.468 6.696C26.54 6.432 26.576 6.164 26.576 5.892C26.576 5.204 26.42 4.668 26.108 4.284C25.804 3.9 25.388 3.708 24.86 3.708C24.54 3.708 24.268 3.776 24.044 3.912C23.828 4.04 23.648 4.212 23.504 4.428C23.368 4.636 23.268 4.876 23.204 5.148C23.148 5.412 23.12 5.684 23.12 5.964ZM35.5718 9.168C35.0758 9.168 34.6318 9.088 34.2398 8.928C33.8558 8.76 33.5278 8.532 33.2558 8.244C32.9918 7.956 32.7878 7.612 32.6438 7.212C32.5078 6.812 32.4398 6.372 32.4398 5.892C32.4398 5.42 32.5078 4.984 32.6438 4.584C32.7878 4.184 32.9918 3.84 33.2558 3.552C33.5278 3.264 33.8558 3.04 34.2398 2.88C34.6318 2.712 35.0758 2.628 35.5718 2.628C36.0678 2.628 36.5078 2.712 36.8918 2.88C37.2838 3.04 37.6118 3.264 37.8758 3.552C38.1478 3.84 38.3518 4.184 38.4878 4.584C38.6318 4.984 38.7038 5.42 38.7038 5.892C38.7038 6.372 38.6318 6.812 38.4878 7.212C38.3518 7.612 38.1478 7.956 37.8758 8.244C37.6118 8.532 37.2838 8.76 36.8918 8.928C36.5078 9.088 36.0678 9.168 35.5718 9.168ZM35.5718 8.088C35.8758 8.088 36.1398 8.024 36.3638 7.896C36.5878 7.768 36.7718 7.6 36.9158 7.392C37.0598 7.184 37.1638 6.952 37.2278 6.696C37.2998 6.432 37.3358 6.164 37.3358 5.892C37.3358 5.628 37.2998 5.364 37.2278 5.1C37.1638 4.836 37.0598 4.604 36.9158 4.404C36.7718 4.196 36.5878 4.028 36.3638 3.9C36.1398 3.772 35.8758 3.708 35.5718 3.708C35.2678 3.708 35.0038 3.772 34.7798 3.9C34.5558 4.028 34.3718 4.196 34.2278 4.404C34.0838 4.604 33.9758 4.836 33.9038 5.1C33.8398 5.364 33.8078 5.628 33.8078 5.892C33.8078 6.164 33.8398 6.432 33.9038 6.696C33.9758 6.952 34.0838 7.184 34.2278 7.392C34.3718 7.6 34.5558 7.768 34.7798 7.896C35.0038 8.024 35.2678 8.088 35.5718 8.088ZM39.2291 2.796H40.2491V2.28C40.2491 1.888 40.2971 1.572 40.3931 1.332C40.4891 1.084 40.6171 0.896 40.7771 0.767999C40.9371 0.632 41.1171 0.544 41.3171 0.504C41.5251 0.456 41.7411 0.431999 41.9651 0.431999C42.4051 0.431999 42.7251 0.46 42.9251 0.516V1.584C42.8371 1.56 42.7411 1.544 42.6371 1.536C42.5411 1.52 42.4251 1.512 42.2891 1.512C42.1051 1.512 41.9451 1.556 41.8091 1.644C41.6811 1.732 41.6171 1.904 41.6171 2.16V2.796H42.7811V3.816H41.6171V9H40.2491V3.816H39.2291V2.796ZM47.1581 0.431999H50.9381C51.5461 0.431999 52.0421 0.52 52.4261 0.696C52.8101 0.872 53.1061 1.092 53.3141 1.356C53.5221 1.62 53.6621 1.908 53.7341 2.22C53.8141 2.532 53.8541 2.82 53.8541 3.084C53.8541 3.348 53.8141 3.636 53.7341 3.948C53.6621 4.252 53.5221 4.536 53.3141 4.8C53.1061 5.064 52.8101 5.284 52.4261 5.46C52.0421 5.628 51.5461 5.712 50.9381 5.712H48.6581V9H47.1581V0.431999ZM48.6581 4.488H50.8541C51.0221 4.488 51.1941 4.464 51.3701 4.416C51.5461 4.368 51.7061 4.292 51.8501 4.188C52.0021 4.076 52.1221 3.932 52.2101 3.756C52.3061 3.572 52.3541 3.344 52.3541 3.072C52.3541 2.792 52.3141 2.56 52.2341 2.376C52.1541 2.192 52.0461 2.048 51.9101 1.944C51.7741 1.832 51.6181 1.756 51.4421 1.716C51.2661 1.676 51.0781 1.656 50.8781 1.656H48.6581V4.488ZM54.97 2.796H56.254V3.996H56.278C56.318 3.828 56.394 3.664 56.506 3.504C56.626 3.344 56.766 3.2 56.926 3.072C57.094 2.936 57.278 2.828 57.478 2.748C57.678 2.668 57.882 2.628 58.09 2.628C58.25 2.628 58.358 2.632 58.414 2.64C58.478 2.648 58.542 2.656 58.606 2.664V3.984C58.51 3.968 58.41 3.956 58.306 3.948C58.21 3.932 58.114 3.924 58.018 3.924C57.786 3.924 57.566 3.972 57.358 4.068C57.158 4.156 56.982 4.292 56.83 4.476C56.678 4.652 56.558 4.872 56.47 5.136C56.382 5.4 56.338 5.704 56.338 6.048V9H54.97V2.796ZM61.8218 9.168C61.3258 9.168 60.8818 9.088 60.4898 8.928C60.1058 8.76 59.7778 8.532 59.5058 8.244C59.2418 7.956 59.0378 7.612 58.8938 7.212C58.7578 6.812 58.6898 6.372 58.6898 5.892C58.6898 5.42 58.7578 4.984 58.8938 4.584C59.0378 4.184 59.2418 3.84 59.5058 3.552C59.7778 3.264 60.1058 3.04 60.4898 2.88C60.8818 2.712 61.3258 2.628 61.8218 2.628C62.3178 2.628 62.7578 2.712 63.1418 2.88C63.5338 3.04 63.8618 3.264 64.1258 3.552C64.3978 3.84 64.6018 4.184 64.7378 4.584C64.8818 4.984 64.9538 5.42 64.9538 5.892C64.9538 6.372 64.8818 6.812 64.7378 7.212C64.6018 7.612 64.3978 7.956 64.1258 8.244C63.8618 8.532 63.5338 8.76 63.1418 8.928C62.7578 9.088 62.3178 9.168 61.8218 9.168ZM61.8218 8.088C62.1258 8.088 62.3898 8.024 62.6138 7.896C62.8378 7.768 63.0218 7.6 63.1658 7.392C63.3098 7.184 63.4138 6.952 63.4778 6.696C63.5498 6.432 63.5858 6.164 63.5858 5.892C63.5858 5.628 63.5498 5.364 63.4778 5.1C63.4138 4.836 63.3098 4.604 63.1658 4.404C63.0218 4.196 62.8378 4.028 62.6138 3.9C62.3898 3.772 62.1258 3.708 61.8218 3.708C61.5178 3.708 61.2538 3.772 61.0298 3.9C60.8058 4.028 60.6218 4.196 60.4778 4.404C60.3338 4.604 60.2258 4.836 60.1538 5.1C60.0898 5.364 60.0578 5.628 60.0578 5.892C60.0578 6.164 60.0898 6.432 60.1538 6.696C60.2258 6.952 60.3338 7.184 60.4778 7.392C60.6218 7.6 60.8058 7.768 61.0298 7.896C61.2538 8.024 61.5178 8.088 61.8218 8.088ZM66.1271 0.431999H67.4951V1.728H66.1271V0.431999ZM66.1271 2.796H67.4951V9.528C67.4951 10.144 67.3591 10.62 67.0871 10.956C66.8151 11.292 66.3591 11.46 65.7191 11.46C65.5831 11.46 65.4671 11.456 65.3711 11.448C65.2831 11.44 65.1951 11.428 65.1071 11.412V10.332C65.1951 10.348 65.2791 10.36 65.3591 10.368C65.4391 10.376 65.5111 10.38 65.5751 10.38C65.8231 10.38 65.9751 10.304 66.0311 10.152C66.0951 10 66.1271 9.772 66.1271 9.468V2.796ZM73.2456 5.352C73.2296 5.136 73.1816 4.928 73.1016 4.728C73.0296 4.528 72.9256 4.356 72.7896 4.212C72.6616 4.06 72.5016 3.94 72.3096 3.852C72.1256 3.756 71.9176 3.708 71.6856 3.708C71.4456 3.708 71.2256 3.752 71.0256 3.84C70.8336 3.92 70.6656 4.036 70.5216 4.188C70.3856 4.332 70.2736 4.504 70.1856 4.704C70.1056 4.904 70.0616 5.12 70.0536 5.352H73.2456ZM70.0536 6.252C70.0536 6.492 70.0856 6.724 70.1496 6.948C70.2216 7.172 70.3256 7.368 70.4616 7.536C70.5976 7.704 70.7696 7.84 70.9776 7.944C71.1856 8.04 71.4336 8.088 71.7216 8.088C72.1216 8.088 72.4416 8.004 72.6816 7.836C72.9296 7.66 73.1136 7.4 73.2336 7.056H74.5296C74.4576 7.392 74.3336 7.692 74.1576 7.956C73.9816 8.22 73.7696 8.444 73.5216 8.628C73.2736 8.804 72.9936 8.936 72.6816 9.024C72.3776 9.12 72.0576 9.168 71.7216 9.168C71.2336 9.168 70.8016 9.088 70.4256 8.928C70.0496 8.768 69.7296 8.544 69.4656 8.256C69.2096 7.968 69.0136 7.624 68.8776 7.224C68.7496 6.824 68.6856 6.384 68.6856 5.904C68.6856 5.464 68.7536 5.048 68.8896 4.656C69.0336 4.256 69.2336 3.908 69.4896 3.612C69.7536 3.308 70.0696 3.068 70.4376 2.892C70.8056 2.716 71.2216 2.628 71.6856 2.628C72.1736 2.628 72.6096 2.732 72.9936 2.94C73.3856 3.14 73.7096 3.408 73.9656 3.744C74.2216 4.08 74.4056 4.468 74.5176 4.908C74.6376 5.34 74.6696 5.788 74.6136 6.252H70.0536ZM79.8416 4.872C79.7856 4.488 79.6296 4.2 79.3736 4.008C79.1256 3.808 78.8096 3.708 78.4256 3.708C78.2496 3.708 78.0616 3.74 77.8616 3.804C77.6616 3.86 77.4776 3.972 77.3096 4.14C77.1416 4.3 77.0016 4.528 76.8896 4.824C76.7776 5.112 76.7216 5.492 76.7216 5.964C76.7216 6.22 76.7496 6.476 76.8056 6.732C76.8696 6.988 76.9656 7.216 77.0936 7.416C77.2296 7.616 77.4016 7.78 77.6096 7.908C77.8176 8.028 78.0696 8.088 78.3656 8.088C78.7656 8.088 79.0936 7.964 79.3496 7.716C79.6136 7.468 79.7776 7.12 79.8416 6.672H81.2096C81.0816 7.48 80.7736 8.1 80.2856 8.532C79.8056 8.956 79.1656 9.168 78.3656 9.168C77.8776 9.168 77.4456 9.088 77.0696 8.928C76.7016 8.76 76.3896 8.536 76.1336 8.256C75.8776 7.968 75.6816 7.628 75.5456 7.236C75.4176 6.844 75.3536 6.42 75.3536 5.964C75.3536 5.5 75.4176 5.064 75.5456 4.656C75.6736 4.248 75.8656 3.896 76.1216 3.6C76.3776 3.296 76.6936 3.06 77.0696 2.892C77.4536 2.716 77.9016 2.628 78.4136 2.628C78.7736 2.628 79.1136 2.676 79.4336 2.772C79.7616 2.86 80.0496 2.996 80.2976 3.18C80.5536 3.364 80.7616 3.596 80.9216 3.876C81.0816 4.156 81.1776 4.488 81.2096 4.872H79.8416ZM81.6976 2.796H82.7296V0.935999H84.0976V2.796H85.3336V3.816H84.0976V7.128C84.0976 7.272 84.1016 7.396 84.1096 7.5C84.1256 7.604 84.1536 7.692 84.1936 7.764C84.2416 7.836 84.3096 7.892 84.3976 7.932C84.4856 7.964 84.6056 7.98 84.7576 7.98C84.8536 7.98 84.9496 7.98 85.0456 7.98C85.1416 7.972 85.2376 7.956 85.3336 7.932V8.988C85.1816 9.004 85.0336 9.02 84.8896 9.036C84.7456 9.052 84.5976 9.06 84.4456 9.06C84.0856 9.06 83.7936 9.028 83.5696 8.964C83.3536 8.892 83.1816 8.792 83.0536 8.664C82.9336 8.528 82.8496 8.36 82.8016 8.16C82.7616 7.96 82.7376 7.732 82.7296 7.476V3.816H81.6976V2.796ZM87.3497 7.008C87.3897 7.408 87.5417 7.688 87.8057 7.848C88.0697 8.008 88.3857 8.088 88.7537 8.088C88.8817 8.088 89.0257 8.08 89.1857 8.064C89.3537 8.04 89.5097 8 89.6537 7.944C89.7977 7.888 89.9137 7.808 90.0017 7.704C90.0977 7.592 90.1417 7.448 90.1337 7.272C90.1257 7.096 90.0617 6.952 89.9417 6.84C89.8217 6.728 89.6657 6.64 89.4737 6.576C89.2897 6.504 89.0777 6.444 88.8377 6.396C88.5977 6.348 88.3537 6.296 88.1057 6.24C87.8497 6.184 87.6017 6.116 87.3617 6.036C87.1297 5.956 86.9177 5.848 86.7257 5.712C86.5417 5.576 86.3937 5.404 86.2817 5.196C86.1697 4.98 86.1137 4.716 86.1137 4.404C86.1137 4.068 86.1937 3.788 86.3537 3.564C86.5217 3.332 86.7297 3.148 86.9777 3.012C87.2337 2.868 87.5137 2.768 87.8177 2.712C88.1297 2.656 88.4257 2.628 88.7057 2.628C89.0257 2.628 89.3297 2.664 89.6177 2.736C89.9137 2.8 90.1777 2.908 90.4097 3.06C90.6497 3.212 90.8457 3.412 90.9977 3.66C91.1577 3.9 91.2577 4.192 91.2977 4.536H89.8697C89.8057 4.208 89.6537 3.988 89.4137 3.876C89.1817 3.764 88.9137 3.708 88.6097 3.708C88.5137 3.708 88.3977 3.716 88.2617 3.732C88.1337 3.748 88.0097 3.78 87.8897 3.828C87.7777 3.868 87.6817 3.932 87.6017 4.02C87.5217 4.1 87.4817 4.208 87.4817 4.344C87.4817 4.512 87.5377 4.648 87.6497 4.752C87.7697 4.856 87.9217 4.944 88.1057 5.016C88.2977 5.08 88.5137 5.136 88.7537 5.184C88.9937 5.232 89.2417 5.284 89.4977 5.34C89.7457 5.396 89.9897 5.464 90.2297 5.544C90.4697 5.624 90.6817 5.732 90.8657 5.868C91.0577 6.004 91.2097 6.176 91.3217 6.384C91.4417 6.592 91.5017 6.848 91.5017 7.152C91.5017 7.52 91.4177 7.832 91.2497 8.088C91.0817 8.344 90.8617 8.552 90.5897 8.712C90.3257 8.872 90.0297 8.988 89.7017 9.06C89.3737 9.132 89.0497 9.168 88.7297 9.168C88.3377 9.168 87.9737 9.124 87.6377 9.036C87.3097 8.948 87.0217 8.816 86.7737 8.64C86.5337 8.456 86.3417 8.232 86.1977 7.968C86.0617 7.696 85.9897 7.376 85.9817 7.008H87.3497ZM92.6483 7.38H94.3163V9C94.3083 9.496 94.1563 9.912 93.8603 10.248C93.5643 10.584 93.1763 10.8 92.6963 10.896V10.164C92.9603 10.1 93.1563 9.952 93.2843 9.72C93.4203 9.496 93.4843 9.256 93.4763 9H92.6483V7.38ZM107.056 8.964L106.324 9.78L105.076 8.688C104.756 8.872 104.424 9.004 104.08 9.084C103.736 9.164 103.396 9.204 103.06 9.204C102.42 9.204 101.844 9.088 101.332 8.856C100.828 8.616 100.4 8.292 100.048 7.884C99.696 7.476 99.424 7 99.232 6.456C99.048 5.912 98.956 5.332 98.956 4.716C98.956 4.108 99.048 3.532 99.232 2.988C99.424 2.444 99.696 1.968 100.048 1.56C100.4 1.152 100.828 0.828 101.332 0.588C101.844 0.348 102.42 0.228 103.06 0.228C103.7 0.228 104.272 0.348 104.776 0.588C105.288 0.828 105.72 1.152 106.072 1.56C106.424 1.968 106.692 2.444 106.876 2.988C107.068 3.532 107.164 4.108 107.164 4.716C107.164 5.012 107.14 5.312 107.092 5.616C107.044 5.912 106.972 6.204 106.876 6.492C106.78 6.78 106.656 7.056 106.504 7.32C106.352 7.576 106.168 7.804 105.952 8.004L107.056 8.964ZM103.156 7.02L103.876 6.192L104.92 7.104C105.192 6.776 105.384 6.404 105.496 5.988C105.608 5.572 105.664 5.148 105.664 4.716C105.664 4.308 105.612 3.908 105.508 3.516C105.412 3.124 105.26 2.776 105.052 2.472C104.844 2.16 104.572 1.912 104.236 1.728C103.908 1.544 103.516 1.452 103.06 1.452C102.604 1.452 102.208 1.544 101.872 1.728C101.544 1.912 101.276 2.16 101.068 2.472C100.86 2.776 100.704 3.124 100.6 3.516C100.504 3.908 100.456 4.308 100.456 4.716C100.456 5.124 100.504 5.524 100.6 5.916C100.704 6.308 100.86 6.66 101.068 6.972C101.276 7.276 101.544 7.52 101.872 7.704C102.208 7.888 102.604 7.98 103.06 7.98C103.22 7.98 103.38 7.964 103.54 7.932C103.708 7.9 103.868 7.848 104.02 7.776L103.156 7.02ZM113.785 9H112.441V8.136H112.417C112.249 8.448 111.997 8.7 111.661 8.892C111.333 9.076 110.997 9.168 110.653 9.168C109.837 9.168 109.245 8.968 108.877 8.568C108.517 8.16 108.337 7.548 108.337 6.732V2.796H109.705V6.6C109.705 7.144 109.809 7.528 110.017 7.752C110.225 7.976 110.517 8.088 110.893 8.088C111.181 8.088 111.421 8.044 111.613 7.956C111.805 7.868 111.961 7.752 112.081 7.608C112.201 7.456 112.285 7.276 112.333 7.068C112.389 6.86 112.417 6.636 112.417 6.396V2.796H113.785V9ZM120.424 7.62C120.424 7.788 120.444 7.908 120.484 7.98C120.532 8.052 120.62 8.088 120.748 8.088C120.788 8.088 120.836 8.088 120.892 8.088C120.948 8.088 121.012 8.08 121.084 8.064V9.012C121.036 9.028 120.972 9.044 120.892 9.06C120.82 9.084 120.744 9.104 120.664 9.12C120.584 9.136 120.504 9.148 120.424 9.156C120.344 9.164 120.276 9.168 120.22 9.168C119.94 9.168 119.708 9.112 119.524 9C119.34 8.888 119.22 8.692 119.164 8.412C118.892 8.676 118.556 8.868 118.156 8.988C117.764 9.108 117.384 9.168 117.016 9.168C116.736 9.168 116.468 9.128 116.212 9.048C115.956 8.976 115.728 8.868 115.528 8.724C115.336 8.572 115.18 8.384 115.06 8.16C114.948 7.928 114.892 7.66 114.892 7.356C114.892 6.972 114.96 6.66 115.096 6.42C115.24 6.18 115.424 5.992 115.648 5.856C115.88 5.72 116.136 5.624 116.416 5.568C116.704 5.504 116.992 5.456 117.28 5.424C117.528 5.376 117.764 5.344 117.988 5.328C118.212 5.304 118.408 5.268 118.576 5.22C118.752 5.172 118.888 5.1 118.984 5.004C119.088 4.9 119.14 4.748 119.14 4.548C119.14 4.372 119.096 4.228 119.008 4.116C118.928 4.004 118.824 3.92 118.696 3.864C118.576 3.8 118.44 3.76 118.288 3.744C118.136 3.72 117.992 3.708 117.856 3.708C117.472 3.708 117.156 3.788 116.908 3.948C116.66 4.108 116.52 4.356 116.488 4.692H115.12C115.144 4.292 115.24 3.96 115.408 3.696C115.576 3.432 115.788 3.22 116.044 3.06C116.308 2.9 116.604 2.788 116.932 2.724C117.26 2.66 117.596 2.628 117.94 2.628C118.244 2.628 118.544 2.66 118.84 2.724C119.136 2.788 119.4 2.892 119.632 3.036C119.872 3.18 120.064 3.368 120.208 3.6C120.352 3.824 120.424 4.1 120.424 4.428V7.62ZM119.056 5.892C118.848 6.028 118.592 6.112 118.288 6.144C117.984 6.168 117.68 6.208 117.376 6.264C117.232 6.288 117.092 6.324 116.956 6.372C116.82 6.412 116.7 6.472 116.596 6.552C116.492 6.624 116.408 6.724 116.344 6.852C116.288 6.972 116.26 7.12 116.26 7.296C116.26 7.448 116.304 7.576 116.392 7.68C116.48 7.784 116.584 7.868 116.704 7.932C116.832 7.988 116.968 8.028 117.112 8.052C117.264 8.076 117.4 8.088 117.52 8.088C117.672 8.088 117.836 8.068 118.012 8.028C118.188 7.988 118.352 7.92 118.504 7.824C118.664 7.728 118.796 7.608 118.9 7.464C119.004 7.312 119.056 7.128 119.056 6.912V5.892ZM121.932 0.431999H123.3V9H121.932V0.431999ZM124.826 0.431999H126.194V1.728H124.826V0.431999ZM124.826 2.796H126.194V9H124.826V2.796ZM127.061 2.796H128.093V0.935999H129.461V2.796H130.697V3.816H129.461V7.128C129.461 7.272 129.465 7.396 129.473 7.5C129.489 7.604 129.517 7.692 129.557 7.764C129.605 7.836 129.673 7.892 129.761 7.932C129.849 7.964 129.969 7.98 130.121 7.98C130.217 7.98 130.313 7.98 130.409 7.98C130.505 7.972 130.601 7.956 130.697 7.932V8.988C130.545 9.004 130.397 9.02 130.253 9.036C130.109 9.052 129.961 9.06 129.809 9.06C129.449 9.06 129.157 9.028 128.933 8.964C128.717 8.892 128.545 8.792 128.417 8.664C128.297 8.528 128.213 8.36 128.165 8.16C128.125 7.96 128.101 7.732 128.093 7.476V3.816H127.061V2.796ZM130.997 2.796H132.497L134.117 7.428H134.141L135.713 2.796H137.141L134.729 9.336C134.617 9.616 134.505 9.884 134.393 10.14C134.289 10.396 134.157 10.62 133.997 10.812C133.845 11.012 133.653 11.168 133.421 11.28C133.189 11.4 132.893 11.46 132.533 11.46C132.213 11.46 131.897 11.436 131.585 11.388V10.236C131.697 10.252 131.805 10.268 131.909 10.284C132.013 10.308 132.121 10.32 132.233 10.32C132.393 10.32 132.525 10.3 132.629 10.26C132.733 10.22 132.817 10.16 132.881 10.08C132.953 10.008 133.013 9.92 133.061 9.816C133.109 9.712 133.153 9.592 133.193 9.456L133.349 8.976L130.997 2.796ZM146.007 8.04C145.687 8.432 145.331 8.72 144.939 8.904C144.555 9.08 144.111 9.168 143.607 9.168C143.215 9.168 142.851 9.112 142.515 9C142.187 8.88 141.903 8.712 141.663 8.496C141.423 8.28 141.235 8.016 141.099 7.704C140.971 7.384 140.907 7.024 140.907 6.624C140.907 6.32 140.963 6.044 141.075 5.796C141.187 5.548 141.335 5.324 141.519 5.124C141.703 4.916 141.911 4.732 142.143 4.572C142.383 4.412 142.627 4.268 142.875 4.14C142.763 3.996 142.655 3.856 142.551 3.72C142.447 3.576 142.355 3.428 142.275 3.276C142.195 3.124 142.131 2.964 142.083 2.796C142.035 2.628 142.011 2.452 142.011 2.268C142.011 1.956 142.063 1.676 142.167 1.428C142.279 1.18 142.431 0.967999 142.623 0.792C142.815 0.608 143.039 0.468 143.295 0.372C143.551 0.276 143.823 0.228 144.111 0.228C144.383 0.228 144.647 0.272 144.903 0.36C145.167 0.44 145.395 0.568 145.587 0.744C145.787 0.911999 145.947 1.124 146.067 1.38C146.187 1.636 146.247 1.936 146.247 2.28C146.247 2.536 146.203 2.772 146.115 2.988C146.035 3.204 145.923 3.404 145.779 3.588C145.643 3.764 145.479 3.924 145.287 4.068C145.103 4.212 144.907 4.34 144.699 4.452L146.031 6.06C146.079 5.924 146.127 5.768 146.175 5.592C146.223 5.416 146.263 5.188 146.295 4.908H147.495C147.455 5.284 147.379 5.652 147.267 6.012C147.163 6.372 147.015 6.704 146.823 7.008L148.467 9H146.787L146.007 8.04ZM143.595 5.04C143.467 5.12 143.327 5.2 143.175 5.28C143.023 5.36 142.879 5.46 142.743 5.58C142.615 5.7 142.503 5.844 142.407 6.012C142.319 6.18 142.275 6.392 142.275 6.648C142.275 7.112 142.403 7.468 142.659 7.716C142.923 7.964 143.255 8.088 143.655 8.088C143.903 8.088 144.115 8.056 144.291 7.992C144.467 7.92 144.615 7.836 144.735 7.74C144.863 7.644 144.967 7.54 145.047 7.428C145.135 7.316 145.211 7.216 145.275 7.128L143.595 5.04ZM144.147 1.248C143.891 1.248 143.675 1.336 143.499 1.512C143.323 1.68 143.235 1.908 143.235 2.196C143.235 2.34 143.259 2.476 143.307 2.604C143.363 2.724 143.427 2.844 143.499 2.964C143.579 3.076 143.663 3.188 143.751 3.3C143.847 3.412 143.935 3.52 144.015 3.624C144.143 3.536 144.267 3.448 144.387 3.36C144.507 3.264 144.615 3.164 144.711 3.06C144.807 2.948 144.883 2.824 144.939 2.688C144.995 2.552 145.023 2.4 145.023 2.232C145.023 1.952 144.943 1.72 144.783 1.536C144.623 1.344 144.411 1.248 144.147 1.248ZM152.557 0.431999H156.109C156.765 0.431999 157.333 0.543999 157.813 0.767999C158.293 0.991999 158.685 1.3 158.989 1.692C159.293 2.076 159.517 2.528 159.661 3.048C159.813 3.568 159.889 4.124 159.889 4.716C159.889 5.308 159.813 5.864 159.661 6.384C159.517 6.904 159.293 7.36 158.989 7.752C158.685 8.136 158.293 8.44 157.813 8.664C157.333 8.888 156.765 9 156.109 9H152.557V0.431999ZM154.057 7.776H155.533C156.117 7.776 156.593 7.7 156.961 7.548C157.337 7.388 157.629 7.172 157.837 6.9C158.053 6.62 158.197 6.296 158.269 5.928C158.349 5.552 158.389 5.148 158.389 4.716C158.389 4.284 158.349 3.884 158.269 3.516C158.197 3.14 158.053 2.816 157.837 2.544C157.629 2.264 157.337 2.048 156.961 1.896C156.593 1.736 156.117 1.656 155.533 1.656H154.057V7.776ZM161.061 0.431999H162.429V1.728H161.061V0.431999ZM161.061 2.796H162.429V9H161.061V2.796ZM169.655 8.676C169.655 9.612 169.391 10.308 168.863 10.764C168.343 11.228 167.591 11.46 166.607 11.46C166.295 11.46 165.979 11.428 165.659 11.364C165.347 11.3 165.059 11.192 164.795 11.04C164.539 10.888 164.323 10.688 164.147 10.44C163.971 10.192 163.867 9.888 163.835 9.528H165.203C165.243 9.72 165.311 9.876 165.407 9.996C165.503 10.116 165.615 10.208 165.743 10.272C165.879 10.344 166.027 10.388 166.187 10.404C166.347 10.428 166.515 10.44 166.691 10.44C167.243 10.44 167.647 10.304 167.903 10.032C168.159 9.76 168.287 9.368 168.287 8.856V7.908H168.263C168.071 8.252 167.807 8.52 167.471 8.712C167.143 8.904 166.787 9 166.403 9C165.907 9 165.483 8.916 165.131 8.748C164.787 8.572 164.499 8.336 164.267 8.04C164.043 7.736 163.879 7.388 163.775 6.996C163.671 6.604 163.619 6.184 163.619 5.736C163.619 5.32 163.683 4.924 163.811 4.548C163.939 4.172 164.123 3.844 164.363 3.564C164.603 3.276 164.895 3.048 165.239 2.88C165.591 2.712 165.987 2.628 166.427 2.628C166.819 2.628 167.179 2.712 167.507 2.88C167.835 3.04 168.087 3.296 168.263 3.648H168.287V2.796H169.655V8.676ZM166.619 7.92C166.923 7.92 167.179 7.86 167.387 7.74C167.603 7.612 167.775 7.448 167.903 7.248C168.039 7.04 168.135 6.808 168.191 6.552C168.255 6.288 168.287 6.024 168.287 5.76C168.287 5.496 168.255 5.24 168.191 4.992C168.127 4.744 168.027 4.524 167.891 4.332C167.763 4.14 167.591 3.988 167.375 3.876C167.167 3.764 166.915 3.708 166.619 3.708C166.315 3.708 166.059 3.772 165.851 3.9C165.643 4.028 165.475 4.196 165.347 4.404C165.219 4.604 165.127 4.836 165.071 5.1C165.015 5.356 164.987 5.612 164.987 5.868C164.987 6.124 165.019 6.376 165.083 6.624C165.147 6.864 165.243 7.08 165.371 7.272C165.507 7.464 165.675 7.62 165.875 7.74C166.083 7.86 166.331 7.92 166.619 7.92ZM171.069 0.431999H172.437V1.728H171.069V0.431999ZM171.069 2.796H172.437V9H171.069V2.796ZM173.303 2.796H174.335V0.935999H175.703V2.796H176.939V3.816H175.703V7.128C175.703 7.272 175.707 7.396 175.715 7.5C175.731 7.604 175.759 7.692 175.799 7.764C175.847 7.836 175.915 7.892 176.003 7.932C176.091 7.964 176.211 7.98 176.363 7.98C176.459 7.98 176.555 7.98 176.651 7.98C176.747 7.972 176.843 7.956 176.939 7.932V8.988C176.787 9.004 176.639 9.02 176.495 9.036C176.351 9.052 176.203 9.06 176.051 9.06C175.691 9.06 175.399 9.028 175.175 8.964C174.959 8.892 174.787 8.792 174.659 8.664C174.539 8.528 174.455 8.36 174.407 8.16C174.367 7.96 174.343 7.732 174.335 7.476V3.816H173.303V2.796ZM183.119 7.62C183.119 7.788 183.139 7.908 183.179 7.98C183.227 8.052 183.315 8.088 183.443 8.088C183.483 8.088 183.531 8.088 183.587 8.088C183.643 8.088 183.707 8.08 183.779 8.064V9.012C183.731 9.028 183.667 9.044 183.587 9.06C183.515 9.084 183.439 9.104 183.359 9.12C183.279 9.136 183.199 9.148 183.119 9.156C183.039 9.164 182.971 9.168 182.915 9.168C182.635 9.168 182.403 9.112 182.219 9C182.035 8.888 181.915 8.692 181.859 8.412C181.587 8.676 181.251 8.868 180.851 8.988C180.459 9.108 180.079 9.168 179.711 9.168C179.431 9.168 179.163 9.128 178.907 9.048C178.651 8.976 178.423 8.868 178.223 8.724C178.031 8.572 177.875 8.384 177.755 8.16C177.643 7.928 177.587 7.66 177.587 7.356C177.587 6.972 177.655 6.66 177.791 6.42C177.935 6.18 178.119 5.992 178.343 5.856C178.575 5.72 178.831 5.624 179.111 5.568C179.399 5.504 179.687 5.456 179.975 5.424C180.223 5.376 180.459 5.344 180.683 5.328C180.907 5.304 181.103 5.268 181.271 5.22C181.447 5.172 181.583 5.1 181.679 5.004C181.783 4.9 181.835 4.748 181.835 4.548C181.835 4.372 181.791 4.228 181.703 4.116C181.623 4.004 181.519 3.92 181.391 3.864C181.271 3.8 181.135 3.76 180.983 3.744C180.831 3.72 180.687 3.708 180.551 3.708C180.167 3.708 179.851 3.788 179.603 3.948C179.355 4.108 179.215 4.356 179.183 4.692H177.815C177.839 4.292 177.935 3.96 178.103 3.696C178.271 3.432 178.483 3.22 178.739 3.06C179.003 2.9 179.299 2.788 179.627 2.724C179.955 2.66 180.291 2.628 180.635 2.628C180.939 2.628 181.239 2.66 181.535 2.724C181.831 2.788 182.095 2.892 182.327 3.036C182.567 3.18 182.759 3.368 182.903 3.6C183.047 3.824 183.119 4.1 183.119 4.428V7.62ZM181.751 5.892C181.543 6.028 181.287 6.112 180.983 6.144C180.679 6.168 180.375 6.208 180.071 6.264C179.927 6.288 179.787 6.324 179.651 6.372C179.515 6.412 179.395 6.472 179.291 6.552C179.187 6.624 179.103 6.724 179.039 6.852C178.983 6.972 178.955 7.12 178.955 7.296C178.955 7.448 178.999 7.576 179.087 7.68C179.175 7.784 179.279 7.868 179.399 7.932C179.527 7.988 179.663 8.028 179.807 8.052C179.959 8.076 180.095 8.088 180.215 8.088C180.367 8.088 180.531 8.068 180.707 8.028C180.883 7.988 181.047 7.92 181.199 7.824C181.359 7.728 181.491 7.608 181.595 7.464C181.699 7.312 181.751 7.128 181.751 6.912V5.892ZM184.627 0.431999H185.995V9H184.627V0.431999ZM190.993 0.431999H193.105L195.469 7.14H195.493L197.797 0.431999H199.885V9H198.457V2.388H198.433L196.057 9H194.821L192.445 2.388H192.421V9H190.993V0.431999ZM206.686 7.62C206.686 7.788 206.706 7.908 206.746 7.98C206.794 8.052 206.882 8.088 207.01 8.088C207.05 8.088 207.098 8.088 207.154 8.088C207.21 8.088 207.274 8.08 207.346 8.064V9.012C207.298 9.028 207.234 9.044 207.154 9.06C207.082 9.084 207.006 9.104 206.926 9.12C206.846 9.136 206.766 9.148 206.686 9.156C206.606 9.164 206.538 9.168 206.482 9.168C206.202 9.168 205.97 9.112 205.786 9C205.602 8.888 205.482 8.692 205.426 8.412C205.154 8.676 204.818 8.868 204.418 8.988C204.026 9.108 203.646 9.168 203.278 9.168C202.998 9.168 202.73 9.128 202.474 9.048C202.218 8.976 201.99 8.868 201.79 8.724C201.598 8.572 201.442 8.384 201.322 8.16C201.21 7.928 201.154 7.66 201.154 7.356C201.154 6.972 201.222 6.66 201.358 6.42C201.502 6.18 201.686 5.992 201.91 5.856C202.142 5.72 202.398 5.624 202.678 5.568C202.966 5.504 203.254 5.456 203.542 5.424C203.79 5.376 204.026 5.344 204.25 5.328C204.474 5.304 204.67 5.268 204.838 5.22C205.014 5.172 205.15 5.1 205.246 5.004C205.35 4.9 205.402 4.748 205.402 4.548C205.402 4.372 205.358 4.228 205.27 4.116C205.19 4.004 205.086 3.92 204.958 3.864C204.838 3.8 204.702 3.76 204.55 3.744C204.398 3.72 204.254 3.708 204.118 3.708C203.734 3.708 203.418 3.788 203.17 3.948C202.922 4.108 202.782 4.356 202.75 4.692H201.382C201.406 4.292 201.502 3.96 201.67 3.696C201.838 3.432 202.05 3.22 202.306 3.06C202.57 2.9 202.866 2.788 203.194 2.724C203.522 2.66 203.858 2.628 204.202 2.628C204.506 2.628 204.806 2.66 205.102 2.724C205.398 2.788 205.662 2.892 205.894 3.036C206.134 3.18 206.326 3.368 206.47 3.6C206.614 3.824 206.686 4.1 206.686 4.428V7.62ZM205.318 5.892C205.11 6.028 204.854 6.112 204.55 6.144C204.246 6.168 203.942 6.208 203.638 6.264C203.494 6.288 203.354 6.324 203.218 6.372C203.082 6.412 202.962 6.472 202.858 6.552C202.754 6.624 202.67 6.724 202.606 6.852C202.55 6.972 202.522 7.12 202.522 7.296C202.522 7.448 202.566 7.576 202.654 7.68C202.742 7.784 202.846 7.868 202.966 7.932C203.094 7.988 203.23 8.028 203.374 8.052C203.526 8.076 203.662 8.088 203.782 8.088C203.934 8.088 204.098 8.068 204.274 8.028C204.45 7.988 204.614 7.92 204.766 7.824C204.926 7.728 205.058 7.608 205.162 7.464C205.266 7.312 205.318 7.128 205.318 6.912V5.892ZM208.158 2.796H209.442V3.996H209.466C209.506 3.828 209.582 3.664 209.694 3.504C209.814 3.344 209.954 3.2 210.114 3.072C210.282 2.936 210.466 2.828 210.666 2.748C210.866 2.668 211.07 2.628 211.278 2.628C211.438 2.628 211.546 2.632 211.602 2.64C211.666 2.648 211.73 2.656 211.794 2.664V3.984C211.698 3.968 211.598 3.956 211.494 3.948C211.398 3.932 211.302 3.924 211.206 3.924C210.974 3.924 210.754 3.972 210.546 4.068C210.346 4.156 210.17 4.292 210.018 4.476C209.866 4.652 209.746 4.872 209.658 5.136C209.57 5.4 209.526 5.704 209.526 6.048V9H208.158V2.796ZM212.412 0.431999H213.78V5.304L216.252 2.796H217.932L215.556 5.076L218.16 9H216.492L214.596 5.988L213.78 6.78V9H212.412V0.431999ZM223.082 5.352C223.066 5.136 223.018 4.928 222.938 4.728C222.866 4.528 222.762 4.356 222.626 4.212C222.498 4.06 222.338 3.94 222.146 3.852C221.962 3.756 221.754 3.708 221.522 3.708C221.282 3.708 221.062 3.752 220.862 3.84C220.67 3.92 220.502 4.036 220.358 4.188C220.222 4.332 220.11 4.504 220.022 4.704C219.942 4.904 219.898 5.12 219.89 5.352H223.082ZM219.89 6.252C219.89 6.492 219.922 6.724 219.986 6.948C220.058 7.172 220.162 7.368 220.298 7.536C220.434 7.704 220.606 7.84 220.814 7.944C221.022 8.04 221.27 8.088 221.558 8.088C221.958 8.088 222.278 8.004 222.518 7.836C222.766 7.66 222.95 7.4 223.07 7.056H224.366C224.294 7.392 224.17 7.692 223.994 7.956C223.818 8.22 223.606 8.444 223.358 8.628C223.11 8.804 222.83 8.936 222.518 9.024C222.214 9.12 221.894 9.168 221.558 9.168C221.07 9.168 220.638 9.088 220.262 8.928C219.886 8.768 219.566 8.544 219.302 8.256C219.046 7.968 218.85 7.624 218.714 7.224C218.586 6.824 218.522 6.384 218.522 5.904C218.522 5.464 218.59 5.048 218.726 4.656C218.87 4.256 219.07 3.908 219.326 3.612C219.59 3.308 219.906 3.068 220.274 2.892C220.642 2.716 221.058 2.628 221.522 2.628C222.01 2.628 222.446 2.732 222.83 2.94C223.222 3.14 223.546 3.408 223.802 3.744C224.058 4.08 224.242 4.468 224.354 4.908C224.474 5.34 224.506 5.788 224.45 6.252H219.89ZM224.866 2.796H225.898V0.935999H227.266V2.796H228.502V3.816H227.266V7.128C227.266 7.272 227.27 7.396 227.278 7.5C227.294 7.604 227.322 7.692 227.362 7.764C227.41 7.836 227.478 7.892 227.566 7.932C227.654 7.964 227.774 7.98 227.926 7.98C228.022 7.98 228.118 7.98 228.214 7.98C228.31 7.972 228.406 7.956 228.502 7.932V8.988C228.35 9.004 228.202 9.02 228.058 9.036C227.914 9.052 227.766 9.06 227.614 9.06C227.254 9.06 226.962 9.028 226.738 8.964C226.522 8.892 226.35 8.792 226.222 8.664C226.102 8.528 226.018 8.36 225.97 8.16C225.93 7.96 225.906 7.732 225.898 7.476V3.816H224.866V2.796ZM229.522 0.431999H230.89V1.728H229.522V0.431999ZM229.522 2.796H230.89V9H229.522V2.796ZM232.38 2.796H233.676V3.708L233.7 3.732C233.908 3.388 234.18 3.12 234.516 2.928C234.852 2.728 235.224 2.628 235.632 2.628C236.312 2.628 236.848 2.804 237.24 3.156C237.632 3.508 237.828 4.036 237.828 4.74V9H236.46V5.1C236.444 4.612 236.34 4.26 236.148 4.044C235.956 3.82 235.656 3.708 235.248 3.708C235.016 3.708 234.808 3.752 234.624 3.84C234.44 3.92 234.284 4.036 234.156 4.188C234.028 4.332 233.928 4.504 233.856 4.704C233.784 4.904 233.748 5.116 233.748 5.34V9H232.38V2.796ZM245.007 8.676C245.007 9.612 244.743 10.308 244.215 10.764C243.695 11.228 242.943 11.46 241.959 11.46C241.647 11.46 241.331 11.428 241.011 11.364C240.699 11.3 240.411 11.192 240.147 11.04C239.891 10.888 239.675 10.688 239.499 10.44C239.323 10.192 239.219 9.888 239.187 9.528H240.555C240.595 9.72 240.663 9.876 240.759 9.996C240.855 10.116 240.967 10.208 241.095 10.272C241.231 10.344 241.379 10.388 241.539 10.404C241.699 10.428 241.867 10.44 242.043 10.44C242.595 10.44 242.999 10.304 243.255 10.032C243.511 9.76 243.639 9.368 243.639 8.856V7.908H243.615C243.423 8.252 243.159 8.52 242.823 8.712C242.495 8.904 242.139 9 241.755 9C241.259 9 240.835 8.916 240.483 8.748C240.139 8.572 239.851 8.336 239.619 8.04C239.395 7.736 239.231 7.388 239.127 6.996C239.023 6.604 238.971 6.184 238.971 5.736C238.971 5.32 239.035 4.924 239.163 4.548C239.291 4.172 239.475 3.844 239.715 3.564C239.955 3.276 240.247 3.048 240.591 2.88C240.943 2.712 241.339 2.628 241.779 2.628C242.171 2.628 242.531 2.712 242.859 2.88C243.187 3.04 243.439 3.296 243.615 3.648H243.639V2.796H245.007V8.676ZM241.971 7.92C242.275 7.92 242.531 7.86 242.739 7.74C242.955 7.612 243.127 7.448 243.255 7.248C243.391 7.04 243.487 6.808 243.543 6.552C243.607 6.288 243.639 6.024 243.639 5.76C243.639 5.496 243.607 5.24 243.543 4.992C243.479 4.744 243.379 4.524 243.243 4.332C243.115 4.14 242.943 3.988 242.727 3.876C242.519 3.764 242.267 3.708 241.971 3.708C241.667 3.708 241.411 3.772 241.203 3.9C240.995 4.028 240.827 4.196 240.699 4.404C240.571 4.604 240.479 4.836 240.423 5.1C240.367 5.356 240.339 5.612 240.339 5.868C240.339 6.124 240.371 6.376 240.435 6.624C240.499 6.864 240.595 7.08 240.723 7.272C240.859 7.464 241.027 7.62 241.227 7.74C241.435 7.86 241.683 7.92 241.971 7.92Z" fill="#522D6E"/>
</svg>
