<svg width="95" height="94" viewBox="0 0 95 94" fill="none" xmlns="http://www.w3.org/2000/svg">
<ellipse cx="47.5" cy="47" rx="47.5" ry="47" fill="#522D6E"/>
<g clip-path="url(#clip0_22_95)">
<path d="M33.46 63.9097C33.3798 63.9097 33.2968 63.8889 33.2219 63.8473C32.9998 63.72 32.9249 63.4393 33.0587 63.2236C34.9477 60.1282 38.4206 58.3272 42.1182 58.5195L53.5376 59.1199C55.4346 59.2186 57.3182 58.6754 58.8487 57.5865L77.9684 44.0045C78.5303 43.6355 78.9985 43.1884 79.3704 42.6635C80.5503 41.0079 80.0607 39.1783 79.0493 38.0997C78.153 37.1433 76.454 36.3844 74.6079 37.3876C74.5436 37.4214 74.4821 37.4578 74.4179 37.4968L59.7771 46.3097C59.5577 46.4423 59.2687 46.3773 59.1323 46.1616C58.9958 45.9485 59.0627 45.6678 59.2848 45.5353L73.9256 36.7223C74.0005 36.6781 74.0754 36.6339 74.1503 36.5924C76.0634 35.5502 78.2574 35.901 79.7423 37.4864C81.0025 38.8326 81.6152 41.1145 80.141 43.1806C79.7022 43.7966 79.151 44.3242 78.5062 44.7452L59.3998 58.3168C57.6928 59.5279 55.5951 60.1334 53.4841 60.0243L42.0647 59.4239C38.7149 59.2498 35.5711 60.8793 33.8614 63.6836C33.7731 63.8265 33.6179 63.9071 33.4574 63.9071L33.46 63.9097Z" fill="white"/>
<path d="M17.9435 51.7466C17.8365 51.7466 17.7295 51.7129 17.6439 51.6401C17.4459 51.479 17.4191 51.1905 17.5877 50.9982L25.7241 41.59C27.8218 39.2328 30.9736 38.0243 34.1549 38.3544C36.6807 38.6143 38.971 39.7994 40.6057 41.6888L41.1195 42.284C41.6037 42.8427 42.3128 43.165 43.0646 43.165H56.0653C58.2325 43.165 59.9984 44.8777 59.9984 46.9854C59.9984 49.0931 58.2352 50.8058 56.0653 50.8058H41.6626C41.4031 50.8058 41.1944 50.6031 41.1944 50.351C41.1944 50.0989 41.4031 49.8962 41.6626 49.8962H56.0653C57.7161 49.8962 59.0619 48.5916 59.0619 46.9854C59.0619 45.3793 57.7188 44.0746 56.0653 44.0746H43.0646C42.0345 44.0746 41.0633 43.6354 40.4024 42.8687L39.8887 42.2736C38.4118 40.5661 36.3409 39.4953 34.0559 39.2588C31.177 38.9625 28.3302 40.0541 26.4358 42.18L18.3021 51.5829C18.2084 51.6895 18.0773 51.7441 17.9435 51.7441V51.7466Z" fill="white"/>
<path d="M33.758 66.9998C33.659 66.9998 33.56 66.9686 33.4743 66.9062C33.2683 66.7555 33.2282 66.4696 33.3834 66.2695C34.1031 65.3469 33.9238 64.0162 32.9874 63.3041L16.9472 51.0891C16.4817 50.7331 15.8984 50.5772 15.3098 50.6525C14.7212 50.7279 14.1994 51.0216 13.8409 51.479C13.6857 51.6791 13.3914 51.7181 13.1854 51.5673C12.9794 51.4166 12.9392 51.1307 13.0944 50.9306C13.6054 50.2757 14.3493 49.8573 15.1894 49.7507C16.0268 49.6467 16.8563 49.8676 17.5225 50.3744L33.5653 62.5894C34.9031 63.6082 35.1546 65.5054 34.1299 66.8204C34.0389 66.9374 33.8971 66.9998 33.7553 66.9998H33.758Z" fill="white"/>
</g>
<defs>
<clipPath id="clip0_22_95">
<rect width="68" height="31" fill="white" transform="translate(13 36)"/>
</clipPath>
</defs>
</svg>
