<svg width="15" height="18" viewBox="0 0 15 18" fill="none" xmlns="http://www.w3.org/2000/svg">
<path d="M14.0565 15.0624L12.3325 12.5469C11.9494 11.9879 11.2429 11.856 10.6839 12.2391L8.44798 13.7714C6.17026 12.0463 4.4464 9.53089 3.65935 6.78417L5.89525 5.25184C6.45426 4.86872 6.58618 4.1622 6.20306 3.60318L4.4007 1.07317C4.03225 0.435622 3.32572 0.303709 2.75204 0.765356L2.37942 1.02073C1.07516 1.91458 0.247051 3.30366 0.0471003 4.80988C0.0471003 4.80988 0.00313569 5.04536 0.00837807 5.45254C0.0429419 5.70267 -0.0157076 6.0168 0.0188587 6.26692C0.176749 7.59631 0.723127 9.89185 2.65329 12.6083C4.63262 15.4964 6.51252 16.741 7.77383 17.3827L7.85236 17.3974C7.99476 17.5052 8.1517 17.5345 8.23023 17.5492L8.30876 17.5639C8.76516 17.7303 9.00062 17.7743 9.00062 17.7743C10.4775 18.1313 12.0718 17.8602 13.3761 16.9664L13.7487 16.711C14.2292 16.3132 14.3611 15.6068 14.0565 15.0624Z" fill="white"/>
</svg>
