<svg  viewBox="0 0 390 514" fill="none" xmlns="http://www.w3.org/2000/svg">
<path opacity="0.4" d="M-0.289062 0.499032C-0.289062 -1.71011 1.5018 -3.50098 3.71094 -3.50098H388.32C390.529 -3.50098 392.32 -1.71012 392.32 0.499023V542.564C392.32 544.773 390.529 546.564 388.32 546.564H3.71095C1.50181 546.564 -0.289062 544.773 -0.289062 542.564V0.499032Z" fill="#522D6E"/>
<path opacity="0.8" d="M-152.422 -0.999991C-152.422 -3.20913 -150.631 -5 -148.422 -5H236.187C238.396 -5 240.187 -3.20914 240.187 -1V541.065C240.187 543.274 238.396 545.065 236.187 545.065H-148.422C-150.631 545.065 -152.422 543.274 -152.422 541.065V-0.999991Z" fill="url(#paint0_linear_22_95)"/>
<defs>
<linearGradient id="paint0_linear_22_95" x1="-4.35769" y1="104.143" x2="230.469" y2="104.143" gradientUnits="userSpaceOnUse">
<stop offset="0.609375" stop-color="#522D6E"/>
<stop offset="1" stop-color="#090A09" stop-opacity="0"/>
</linearGradient>
</defs>
</svg>
