<svg width="95" height="94" viewBox="0 0 95 94" fill="none" xmlns="http://www.w3.org/2000/svg">
<ellipse cx="47.5" cy="47" rx="47.5" ry="47" fill="#522D6E"/>
<g clip-path="url(#clip0_22_95)">
<path d="M69.7832 54.0284C66.7527 54.0284 63.9837 51.7649 62.5576 48.1206C62.457 47.866 62.5863 47.5774 62.8451 47.4812C63.1039 47.3822 63.3943 47.5095 63.4949 47.7641C64.7658 51.0151 67.1753 53.0353 69.7803 53.0353C72.3854 53.0353 74.792 51.0151 76.0629 47.7641C76.1635 47.5095 76.4539 47.3822 76.7127 47.4784C76.9715 47.5774 77.1009 47.8632 77.0002 48.1178C75.5769 51.762 72.808 54.0255 69.7775 54.0255L69.7832 54.0284Z" fill="white"/>
<path d="M62.7543 48.4793C61.8371 48.4793 60.917 47.6503 60.5375 46.4111C60.3391 45.7631 60.3219 45.0982 60.4886 44.538C60.6755 43.9099 61.0867 43.46 61.6157 43.3044C61.8803 43.2252 62.162 43.3751 62.2425 43.6354C62.3231 43.8986 62.1707 44.173 61.9061 44.2522C61.6387 44.3315 61.5093 44.6399 61.4576 44.8153C61.3455 45.1888 61.3627 45.6669 61.5036 46.1253C61.794 47.0731 62.4668 47.5937 62.8895 47.4692C63.1569 47.39 63.4358 47.54 63.5163 47.8003C63.5968 48.0606 63.4444 48.3379 63.1799 48.4171C63.039 48.4595 62.8981 48.4793 62.7572 48.4793H62.7543Z" fill="white"/>
<path d="M76.8199 48.4794C76.679 48.4794 76.5353 48.4596 76.3973 48.4171C76.1298 48.3379 75.9803 48.0635 76.0608 47.8003C76.1413 47.5372 76.4203 47.3901 76.6877 47.4693C77.1103 47.5938 77.786 47.0732 78.0735 46.1253C78.2144 45.667 78.2288 45.1888 78.1196 44.8153C78.0678 44.6399 77.9384 44.3315 77.671 44.2523C77.4036 44.1731 77.2541 43.8986 77.3346 43.6355C77.4151 43.3752 77.694 43.2224 77.9614 43.3045C78.4905 43.4601 78.9016 43.9099 79.0885 44.5381C79.2553 45.0983 79.238 45.7632 79.0396 46.4111C78.6601 47.6532 77.74 48.4794 76.8228 48.4794H76.8199Z" fill="white"/>
<path d="M61.7692 44.2812C61.7519 44.2812 61.7318 44.2812 61.7146 44.2812C61.4385 44.2529 61.2373 44.0067 61.2689 43.7351L61.404 42.5043C61.6484 40.2691 62.8963 38.2942 64.8256 37.0917C64.9694 37.0012 65.1534 36.9899 65.3087 37.0606C68.5376 38.5517 72.218 38.9054 75.677 38.0537L75.7115 38.0452C75.8754 38.0056 76.0537 38.0481 76.1773 38.1641C76.301 38.2801 76.3585 38.447 76.3297 38.6139C76.0105 40.3512 76.6575 42.145 78.0146 43.2966L78.1411 43.4041C78.351 43.5823 78.374 43.8964 78.1929 44.1029C78.0118 44.3095 77.6926 44.3349 77.4827 44.1539L77.3562 44.0463C75.9185 42.8269 75.1451 41.0048 75.2486 39.1628C71.8557 39.8504 68.3019 39.4684 65.1362 38.0707C63.595 39.1232 62.603 40.7614 62.4018 42.609L62.2666 43.8398C62.2379 44.0944 62.0193 44.2812 61.7663 44.2812H61.7692Z" fill="white"/>
<path d="M60.7976 45.4866C60.582 45.4866 60.3807 45.348 60.3146 45.133C59.7452 43.2543 59.659 41.2963 60.0615 39.4742C60.119 39.2083 61.5653 32.9412 67.0313 31.6057C69.9899 30.8814 73.3282 31.8094 75.3409 33.9117C75.7837 34.3757 76.1718 34.902 76.491 35.4763C76.5255 35.499 76.5686 35.5272 76.6175 35.5612C78.3916 36.7807 79.4065 38.9055 79.2714 41.1039C79.2426 41.5482 79.1938 42.0914 79.1478 42.6177C79.0845 43.3363 79.0184 44.0776 79.0184 44.4426C79.0184 44.7171 78.7941 44.9377 78.5152 44.9377C78.2363 44.9377 78.012 44.7171 78.012 44.4426C78.012 44.0323 78.0781 43.3024 78.1472 42.5299C78.1932 42.0093 78.242 41.4718 78.2679 41.0417C78.3829 39.1828 77.5318 37.3946 76.0424 36.3704C75.9792 36.328 75.9332 36.294 75.9015 36.2799C75.798 36.2346 75.7233 36.161 75.6715 36.062C75.3811 35.5159 75.0246 35.0208 74.6105 34.5879C72.8394 32.7375 69.8922 31.9254 67.2757 32.5649C62.4078 33.7561 61.0995 39.4431 61.0449 39.6836C60.6768 41.3444 60.7602 43.1298 61.2807 44.85C61.3612 45.1132 61.2088 45.3876 60.9414 45.4668C60.8925 45.481 60.8465 45.4866 60.7976 45.4866Z" fill="white"/>
<path d="M52.0735 70.0001C51.7946 70.0001 51.5703 69.7794 51.5703 69.505V65.558C51.5703 61.3337 54.9258 57.8027 59.2071 57.5197L61.0128 57.4009C62.2233 57.3217 63.3993 56.9284 64.4085 56.2663L65.9008 55.2845V52.7041C65.9008 52.4297 66.1251 52.209 66.404 52.209C66.6829 52.209 66.9071 52.4297 66.9071 52.7041V55.5505C66.9071 55.7146 66.8238 55.8702 66.6829 55.9636L64.9663 57.0897C63.8105 57.8479 62.4648 58.2978 61.0789 58.3883L59.2732 58.5072C55.5181 58.7562 52.5767 61.8515 52.5767 65.558V69.505C52.5767 69.7794 52.3524 70.0001 52.0735 70.0001Z" fill="white"/>
<path d="M87.5006 70.0001C87.2217 70.0001 86.9974 69.7794 86.9974 69.505V65.558C86.9974 61.8515 84.056 58.7562 80.298 58.5072L78.4894 58.3883C77.1035 58.2978 75.7608 57.8479 74.6049 57.0897L72.8883 55.9636C72.7474 55.8702 72.6641 55.7174 72.6641 55.5505V52.7041C72.6641 52.4297 72.8883 52.209 73.1672 52.209C73.4461 52.209 73.6704 52.4297 73.6704 52.7041V55.2845L75.1627 56.2635C76.1719 56.9284 77.3479 57.3188 78.5555 57.3981L80.3641 57.5169C84.6483 57.7998 88.0009 61.3309 88.0009 65.5552V69.5021C88.0009 69.7766 87.7766 69.9973 87.4977 69.9973L87.5006 70.0001Z" fill="white"/>
<path d="M63.2379 64.2874C63.0941 64.2874 62.9532 64.228 62.8526 64.112C62.6743 63.9026 62.7002 63.5914 62.913 63.4131L72.8385 55.174C73.0513 54.9985 73.3676 55.024 73.5487 55.2334C73.727 55.4428 73.7011 55.754 73.4883 55.9322L63.5628 64.1714C63.4679 64.2506 63.3529 64.2874 63.2379 64.2874Z" fill="white"/>
<path d="M75.994 64.0271C75.8789 64.0271 75.7639 63.9875 75.669 63.9111L66.0771 55.9322C65.8643 55.7568 65.8384 55.4428 66.0167 55.2334C66.1949 55.024 66.5141 54.9985 66.7269 55.174L76.3189 63.1528C76.5316 63.3282 76.5575 63.6423 76.3792 63.8517C76.2786 63.9677 76.1377 64.0271 75.994 64.0271Z" fill="white"/>
<path d="M66.9012 70.0003C66.8667 70.0003 66.8322 69.9974 66.7977 69.989C66.5245 69.9324 66.352 69.6721 66.4095 69.4033L67.8299 62.7033C67.8874 62.4345 68.1548 62.2648 68.4251 62.3185C68.6982 62.3751 68.8707 62.6354 68.8132 62.9042L67.3928 69.6042C67.344 69.839 67.1341 69.9975 66.9012 69.9975V70.0003Z" fill="white"/>
<path d="M72.4823 70.0001C72.2437 70.0001 72.0309 69.8332 71.9878 69.5927L70.7658 62.8928C70.7169 62.624 70.898 62.3665 71.1712 62.3184C71.4443 62.2703 71.706 62.4485 71.7549 62.7173L72.9769 69.4173C73.0258 69.6861 72.8446 69.9436 72.5715 69.9917C72.5427 69.9973 72.5111 70.0001 72.4823 70.0001Z" fill="white"/>
<path d="M65.6609 69.9996C65.4711 69.9996 65.2871 69.8921 65.2037 69.711L59.8499 58.153C59.7349 57.904 59.847 57.6098 60.1 57.4966C60.3531 57.3834 60.6521 57.4938 60.7671 57.7428L66.1209 69.3008C66.2359 69.5498 66.1238 69.844 65.8707 69.9572C65.8017 69.9883 65.7327 70.0025 65.6637 70.0025L65.6609 69.9996Z" fill="white"/>
<path d="M73.4242 69.9995C73.3552 69.9995 73.2833 69.9854 73.2172 69.9543C72.9642 69.8411 72.852 69.5468 72.9671 69.2978L78.318 57.7398C78.433 57.4909 78.732 57.3805 78.9851 57.4937C79.2381 57.6069 79.3502 57.9011 79.2352 58.1501L73.8843 69.7081C73.8009 69.8892 73.6169 69.9967 73.4271 69.9967L73.4242 69.9995Z" fill="white"/>
<path d="M71.2603 63.3002H68.3218C68.0745 63.3002 67.8617 63.1219 67.8244 62.8815L67.3729 60.0266C67.3701 60.0011 67.3672 59.9757 67.3672 59.9502C67.3672 59.6758 67.5915 59.4551 67.8704 59.4551C68.1291 59.4551 68.3419 59.6446 68.3707 59.8936L68.7531 62.3127H70.8319L71.2143 59.8908C71.2575 59.622 71.5134 59.4381 71.7894 59.4777C72.0654 59.5202 72.2523 59.772 72.2092 60.0436L71.7606 62.8843C71.7233 63.1248 71.5105 63.303 71.2632 63.303L71.2603 63.3002Z" fill="white"/>
<path d="M56.7421 49.1022C56.676 49.1022 56.6098 49.0909 56.5466 49.0626C56.2907 48.9551 56.1699 48.6665 56.2792 48.4147L56.952 46.85C57.0009 46.7369 57.0469 46.6209 57.09 46.5077C57.7111 44.8836 57.7887 43.0785 57.3172 41.2847L57.0124 40.1303C56.8772 39.6125 56.6903 39.106 56.4632 38.6222L56.0118 37.6631C55.5115 36.5992 55.408 35.3882 55.7242 34.2565C56.3338 32.0581 55.8939 29.7465 54.5137 27.913C53.1652 26.122 51.1065 25.0582 48.8638 24.9931C48.789 24.9931 48.7143 24.9903 48.6395 24.9903H44.3841C44.3093 24.9903 44.2346 24.9903 44.1598 24.9931C41.9171 25.0582 39.8583 26.122 38.5098 27.913C37.1297 29.7465 36.6869 32.0581 37.2993 34.2565C37.6127 35.3882 37.5121 36.5992 37.0118 37.6631L36.1981 39.3918C35.0911 41.743 35.0451 44.462 36.0716 46.85L36.7444 48.4147C36.8537 48.6665 36.7329 48.9579 36.477 49.0626C36.2211 49.1701 35.9249 49.0513 35.8186 48.7995L35.1457 47.2348C34.01 44.5922 34.0589 41.5817 35.2838 38.9759L36.0975 37.2471C36.5 36.3927 36.5805 35.425 36.3304 34.5168C35.6374 32.0241 36.1377 29.4013 37.7048 27.3217C39.2373 25.2874 41.5807 24.0764 44.131 24.0028C44.2144 24.0028 44.3007 24 44.3841 24H48.6395C48.7229 24 48.8092 24 48.8925 24.0028C51.4458 24.0764 53.7892 25.2845 55.3217 27.3217C56.8859 29.4013 57.389 32.0241 56.6961 34.5168C56.4431 35.425 56.5264 36.3927 56.929 37.2471L57.3804 38.2063C57.6334 38.7439 57.8376 39.3069 57.99 39.8813L58.2948 41.0357C58.8209 43.0276 58.7318 45.0421 58.036 46.8585C57.9871 46.9859 57.9353 47.1132 57.8807 47.2377L57.2079 48.8023C57.1274 48.9919 56.9405 49.1051 56.745 49.1051L56.7421 49.1022Z" fill="white"/>
<path d="M62.7327 58.0825C62.4538 58.0825 62.2295 57.8618 62.2295 57.5873V55.4229C62.2295 51.9965 59.3974 49.2067 55.9125 49.2067H50.9871C50.044 49.2067 49.2734 48.4513 49.2734 47.5204V46.0576C49.2734 45.7832 49.4977 45.5625 49.7766 45.5625C50.0555 45.5625 50.2798 45.7832 50.2798 46.0576V47.5204C50.2798 47.9024 50.5961 48.2165 50.9871 48.2165H55.9125C59.9494 48.2165 63.2359 51.4476 63.2359 55.4229V57.5873C63.2359 57.8618 63.0116 58.0825 62.7327 58.0825Z" fill="white"/>
<path d="M30.3597 57.6015C30.0808 57.6015 29.8565 57.378 29.8594 57.1035L29.8709 54.8457C29.8709 54.8457 29.8709 54.8202 29.8709 54.8061C30.1901 51.1109 33.3931 48.2165 37.1684 48.2165H42.0938C42.482 48.2165 42.8011 47.9052 42.8011 47.5204V46.0576C42.8011 45.7832 43.0254 45.5625 43.3043 45.5625C43.5832 45.5625 43.8075 45.7832 43.8075 46.0576V47.5204C43.8075 48.4513 43.0398 49.2067 42.0938 49.2067H37.1684C33.9193 49.2067 31.1619 51.6938 30.8773 54.8711L30.8658 57.1092C30.8658 57.3808 30.6386 57.6015 30.3626 57.6015H30.3597Z" fill="white"/>
<path d="M47.7296 46.5531H45.3517C41.7404 46.5531 38.8047 43.6615 38.8047 40.1107V35.0206C38.8047 34.9131 38.8076 34.8084 38.8133 34.7037C38.8248 34.5028 38.96 34.3302 39.1526 34.268C39.236 34.2397 47.5887 31.416 49.9378 29.9221C50.073 29.8344 50.2455 29.8174 50.395 29.8768C50.5474 29.9362 50.6595 30.0635 50.6998 30.2163L50.8206 30.6945C51.157 32.013 52.2553 32.9806 53.624 33.1617C53.8166 33.1872 53.9776 33.3201 54.0351 33.5012C54.1962 33.9907 54.2767 34.5028 54.2767 35.0206V40.1107C54.2767 43.6643 51.3381 46.5531 47.7296 46.5531ZM39.8082 35.0913V40.1078C39.8082 43.1154 42.2953 45.56 45.3489 45.56H47.7267C50.7832 45.56 53.2674 43.1126 53.2674 40.1078V35.0178C53.2674 34.7009 53.2301 34.3897 53.1553 34.0841C51.5854 33.7559 50.3346 32.6185 49.8832 31.0934C47.2379 32.5138 41.2918 34.5792 39.8053 35.0885L39.8082 35.0913Z" fill="white"/>
<path d="M45.8839 63.043C45.651 63.043 45.4411 62.8818 45.3922 62.6498L42.3703 48.5396C42.3128 48.2709 42.4882 48.0106 42.7585 47.954C43.0287 47.8946 43.2961 48.07 43.3537 48.3359L46.3756 62.446C46.4331 62.7148 46.2577 62.9751 45.9874 63.0317C45.9529 63.0402 45.9184 63.043 45.8839 63.043Z" fill="white"/>
<path d="M46.9402 63.0372C46.9057 63.0372 46.8712 63.0343 46.8367 63.0258C46.5636 62.9692 46.391 62.7061 46.4485 62.4402L49.528 48.1292C49.5855 47.8604 49.8529 47.6906 50.1232 47.7472C50.3963 47.8038 50.5689 48.0669 50.5113 48.3329L47.4319 62.6439C47.383 62.8759 47.1731 63.0372 46.9402 63.0372Z" fill="white"/>
<path d="M46.4059 63.2778C46.0608 63.2778 45.7302 63.1307 45.503 62.876C45.4829 62.8534 45.4657 62.8307 45.4513 62.8053L43.5593 59.693C42.4725 57.9048 40.0975 57.2993 38.263 58.3377C38.0905 58.4367 37.872 58.4254 37.711 58.3066C37.55 58.1877 37.4752 57.9897 37.5212 57.7973L39.6863 48.7178C39.7496 48.4519 40.0198 48.2877 40.2901 48.35C40.5604 48.4122 40.7272 48.6782 40.6639 48.9442L38.726 57.0616C40.8422 56.4052 43.2344 57.2399 44.4162 59.1837L46.2765 62.2451C46.3225 62.2818 46.3714 62.2875 46.3972 62.2875C46.426 62.2875 46.4749 62.2818 46.5209 62.2422L48.3812 59.1808C49.5629 57.2371 51.9552 56.4024 54.0743 57.0588L52.1363 48.9413C52.0731 48.6754 52.2399 48.4094 52.5101 48.3472C52.7804 48.2849 53.0507 48.449 53.1139 48.715L55.279 57.7945C55.325 57.9812 55.2532 58.1764 55.1008 58.2953C54.9484 58.4141 54.7385 58.4367 54.5631 58.349C54.5545 58.3434 54.543 58.3377 54.5343 58.3349C52.6999 57.2937 50.3249 57.902 49.2409 59.6901L47.3518 62.7996C47.3346 62.8279 47.3145 62.8562 47.2915 62.8788C47.0643 63.1307 46.7394 63.275 46.3972 63.275L46.4059 63.2778Z" fill="white"/>
<path d="M15.4473 46.5017C15.4099 46.5017 15.3725 46.4989 15.3322 46.4904C13.9406 46.1735 12.9688 44.9653 12.9688 43.5563V42.6368C12.9688 42.1501 13.1528 41.6861 13.4892 41.3296C13.8543 40.9363 14.3805 40.71 14.924 40.71H15.4099C15.6888 40.71 15.9131 40.9307 15.9131 41.2051C15.9131 41.4796 15.6888 41.7002 15.4099 41.7002H14.924C14.6594 41.7002 14.4064 41.8106 14.2281 42.0002C14.0642 42.1756 13.9751 42.3991 13.9751 42.6368V43.5563C13.9751 44.5013 14.6278 45.3105 15.5594 45.5256C15.8297 45.5878 15.9993 45.8538 15.9361 46.1197C15.8814 46.3489 15.6744 46.5017 15.4473 46.5017Z" fill="white"/>
<path d="M30.0723 46.5045C29.8423 46.5045 29.6353 46.3489 29.5835 46.1197C29.5203 45.8538 29.6899 45.5878 29.9631 45.5256C30.9004 45.3134 31.556 44.5042 31.556 43.5535V42.6339C31.556 42.119 31.1305 41.7002 30.6071 41.7002H30.0752C29.7963 41.7002 29.572 41.4796 29.572 41.2051C29.572 40.9307 29.7963 40.71 30.0752 40.71H30.6071C31.6854 40.71 32.5624 41.5729 32.5624 42.6339V43.5535C32.5624 44.9682 31.5847 46.1763 30.1874 46.4904C30.15 46.4989 30.1126 46.5017 30.0752 46.5017L30.0723 46.5045Z" fill="white"/>
<path d="M13.8547 42.1645C13.6678 42.1645 13.4867 42.0598 13.4004 41.8844L13.2394 41.5562C12.788 40.6338 12.5493 39.6945 12.5234 38.7608C12.5234 38.7014 12.5234 38.6448 12.5234 38.5854C12.5234 35.7334 14.3061 33.1699 16.9888 32.1259L17.1325 31.5742C17.3712 30.6575 17.8715 29.8341 18.5759 29.1947C19.2804 28.5524 20.1516 28.128 21.1004 27.9639C23.6796 27.5253 26.2932 28.0884 28.4238 29.5116C31.9719 31.8826 33.5792 36.203 32.4291 40.2689L32.0553 41.5902C31.9806 41.8533 31.7045 42.0061 31.4371 41.9354C31.1697 41.8618 31.0116 41.5902 31.0864 41.3242L31.4601 40.0029C32.4953 36.3473 31.0461 32.4626 27.8574 30.3321C25.9425 29.0532 23.5933 28.5439 21.273 28.94C20.5196 29.0702 19.8238 29.4097 19.2603 29.9218C18.6967 30.4339 18.2999 31.0904 18.1073 31.8203L17.8974 32.621C17.8542 32.7823 17.7364 32.9096 17.5782 32.9662C15.1572 33.8037 13.5298 36.0616 13.5298 38.5854C13.5298 38.6363 13.5298 38.6844 13.5298 38.7353C13.5499 39.5276 13.7569 40.3339 14.1451 41.129L14.3061 41.4572C14.4269 41.7033 14.3205 42.0004 14.0703 42.1164C14.0013 42.1504 13.9266 42.1645 13.8518 42.1645H13.8547Z" fill="white"/>
<path d="M22.7591 54.8031C20.8959 54.8031 19.1304 54.008 17.9142 52.6188L16.4995 51.0032C15.4989 49.8601 14.9497 48.403 14.9497 46.895L14.8922 39.8017C14.7427 37.9909 15.266 36.1886 16.3673 34.7286L17.3477 33.43C17.4541 33.2885 17.6295 33.2149 17.8078 33.2319C17.9861 33.2517 18.1384 33.362 18.2132 33.5233L18.6359 34.4598C18.9378 35.1332 19.3662 35.7359 19.9096 36.248C20.4502 36.7573 21.0799 37.1562 21.7757 37.4279C22.7734 37.8183 23.8632 37.923 24.9213 37.7334L26.9484 37.3684C27.1353 37.3345 27.3221 37.3175 27.5004 37.3175C28.5787 37.3175 29.5908 37.8862 30.1399 38.8001C30.4188 39.2641 30.5684 39.7961 30.5684 40.3365V46.8978C30.5684 48.4058 30.0163 49.863 29.0186 51.006L27.6039 52.6216C26.3877 54.0108 24.6222 54.8059 22.7591 54.8059V54.8031ZM17.6439 34.7032L17.1781 35.3228C16.2178 36.5932 15.7635 38.1635 15.8986 39.7423C15.8986 39.7536 15.8986 39.7678 15.8986 39.7791L15.9561 46.895C15.9561 48.1682 16.419 49.399 17.2615 50.3609L18.6761 51.9765C19.6997 53.1479 21.1891 53.8184 22.7591 53.8184C24.329 53.8184 25.8155 53.1479 26.842 51.9765L28.2566 50.3609C29.0991 49.399 29.562 48.1682 29.562 46.9006V40.3393C29.562 39.9743 29.4614 39.6178 29.2745 39.3066C28.9036 38.6898 28.225 38.3106 27.5004 38.3106C27.3797 38.3106 27.2531 38.3219 27.1266 38.3446L25.0995 38.7096C23.8545 38.9331 22.5779 38.8086 21.4019 38.3531C20.5825 38.0362 19.8464 37.5693 19.2081 36.9667C18.5726 36.364 18.0694 35.6567 17.7129 34.8673L17.641 34.7088L17.6439 34.7032Z" fill="white"/>
<path d="M17.7595 34.3665C17.5324 34.3665 17.3282 34.2138 17.2707 33.9902L16.9285 32.618C16.8624 32.352 17.0292 32.0832 17.2966 32.0182C17.5669 31.9531 17.84 32.1172 17.9062 32.3803L18.2483 33.7526C18.3144 34.0185 18.1477 34.2873 17.8803 34.3524C17.84 34.3609 17.7998 34.3665 17.7595 34.3665Z" fill="white"/>
<path d="M7.50362 70.0005C7.50362 70.0005 7.48925 70.0005 7.48062 70.0005C7.20172 69.9892 6.98894 69.7571 7.00045 69.4827L7.29948 62.9893C7.41449 60.4938 9.05341 58.301 11.3824 57.5342C11.4888 57.5003 11.598 57.4663 11.7102 57.438L16.3078 56.1846C16.4602 56.1422 16.6039 56.0856 16.7448 56.0092C16.9806 55.8847 17.1876 55.7121 17.3544 55.5056L18.6138 52.9139C18.7345 52.6677 19.0336 52.563 19.2837 52.6819C19.5339 52.8007 19.6403 53.0949 19.5195 53.3411L18.2371 55.9809C18.2227 56.012 18.2055 56.0403 18.1854 56.0658C17.9295 56.3968 17.5988 56.6769 17.2279 56.875C17.0237 56.9853 16.8023 57.0759 16.5752 57.1381L11.9747 58.3944C11.8798 58.4198 11.7907 58.4453 11.7016 58.4736C9.76648 59.1102 8.40071 60.9436 8.30583 63.0317L8.0068 69.5251C7.9953 69.7911 7.77102 69.9976 7.50362 69.9976V70.0005Z" fill="white"/>
<path d="M37.6652 69.9999C37.3978 69.9999 37.1764 69.7934 37.162 69.5274L36.8658 63.034C36.7681 60.9431 35.4023 59.1096 33.4672 58.4758C33.3781 58.4476 33.2918 58.4193 33.1998 58.3966L28.5936 57.1404C27.9582 56.9678 27.386 56.5858 26.9834 56.068C26.9691 56.0482 26.9547 56.0256 26.9403 56.003L25.6464 53.6461C25.5142 53.4056 25.6062 53.1057 25.8506 52.9755C26.095 52.8454 26.3998 52.9359 26.532 53.1764L27.8058 55.4965C28.0732 55.8304 28.447 56.0737 28.861 56.1869L33.4644 57.4431C33.5707 57.4714 33.6771 57.5025 33.7835 57.5393C36.1096 58.3033 37.7514 60.496 37.8693 62.9944L38.1655 69.4878C38.177 69.7622 37.9642 69.9914 37.6853 70.0056C37.6767 70.0056 37.6709 70.0056 37.6623 70.0056L37.6652 69.9999Z" fill="white"/>
<path d="M13.0875 70.0002C12.8459 70.0002 12.6332 69.8304 12.5929 69.5899C12.3198 68.0253 11.9172 66.4578 11.3939 64.9328C11.3048 64.6724 11.4457 64.3923 11.7102 64.3046C11.9747 64.2169 12.2594 64.3556 12.3485 64.6159C12.8891 66.1918 13.306 67.8074 13.5849 69.423C13.6309 69.6918 13.4469 69.9492 13.1737 69.9945C13.145 70.0002 13.1162 70.003 13.0875 70.003V70.0002Z" fill="white"/>
<path d="M20.1735 69.9999C19.9463 69.9999 19.7393 69.8471 19.6847 69.6207L16.4989 56.5547C16.4327 56.2887 16.5995 56.0228 16.8698 55.9577C17.14 55.8954 17.4103 56.0567 17.4765 56.3227L20.6623 69.3859C20.7284 69.6519 20.5616 69.9178 20.2914 69.9829C20.2511 69.9914 20.2137 69.997 20.1735 69.997V69.9999Z" fill="white"/>
<path d="M32.0904 70.0001C32.0617 70.0001 32.0329 70.0001 32.0042 69.9916C31.731 69.9463 31.547 69.6888 31.593 69.42C31.8748 67.7988 32.2917 66.1832 32.8322 64.6129C32.9214 64.3526 33.206 64.214 33.4706 64.3017C33.7351 64.3894 33.876 64.6695 33.7868 64.9298C33.2635 66.452 32.8581 68.0167 32.585 69.587C32.5418 69.8275 32.3291 69.9972 32.0904 69.9972V70.0001Z" fill="white"/>
<path d="M24.2468 70.0002C24.2008 70.0002 24.1519 69.9945 24.103 69.9804C23.8356 69.904 23.6832 69.6267 23.7637 69.3664L27.6827 56.3004C27.7604 56.0372 28.0422 55.8873 28.3067 55.9665C28.5741 56.0429 28.7265 56.3202 28.646 56.5805L24.7269 69.6465C24.6637 69.8616 24.4624 70.0002 24.2439 70.0002H24.2468Z" fill="white"/>
<path d="M22.5483 58.2662C19.8915 58.2662 17.2031 57.5051 17.2031 56.0508C17.2031 55.7764 17.4274 55.5557 17.7063 55.5557C17.9852 55.5557 18.2095 55.7764 18.2095 56.0508C18.2095 56.4809 19.857 57.2759 22.5483 57.2759C25.2396 57.2759 26.8871 56.4837 26.8871 56.0508C26.8871 55.7764 27.1114 55.5557 27.3903 55.5557C27.6692 55.5557 27.8935 55.7764 27.8935 56.0508C27.8935 57.5051 25.2051 58.2662 22.5483 58.2662Z" fill="white"/>
<path d="M20.072 65.2328C20.0403 65.2328 20.0058 65.23 19.9742 65.2244C19.701 65.1706 19.5256 64.9103 19.5803 64.6415L20.9949 57.6756C21.0496 57.4068 21.3141 57.2314 21.5872 57.288C21.8604 57.3417 22.0358 57.602 21.9812 57.8708L20.5665 64.8367C20.5176 65.0716 20.3077 65.2357 20.0748 65.2357L20.072 65.2328Z" fill="white"/>
<path d="M24.628 65.266C24.3923 65.266 24.1824 65.1047 24.1364 64.867L22.7131 57.87C22.6585 57.6012 22.8339 57.3409 23.107 57.2871C23.3802 57.2334 23.6447 57.406 23.6993 57.6748L25.1226 64.6718C25.1772 64.9406 25.0018 65.2009 24.7287 65.2547C24.6942 65.2603 24.6625 65.2632 24.628 65.2632V65.266Z" fill="white"/>
<path d="M22.3862 67.6378C22.251 67.6378 22.1217 67.5841 22.0268 67.4879L18.332 63.7786C18.1365 63.5833 18.1394 63.2693 18.3406 63.0797C18.539 62.8873 18.8582 62.8901 19.0508 63.0882L22.3862 66.4382L25.6784 63.1306C25.8739 62.9354 26.1902 62.9326 26.3886 63.1222C26.587 63.3145 26.5899 63.6258 26.3972 63.821L22.7456 67.4907C22.6507 67.5869 22.5213 67.6407 22.3862 67.6407V67.6378Z" fill="white"/>
</g>
<defs>
<clipPath id="clip0_22_95">
<rect width="81" height="46" fill="white" transform="translate(7 24)"/>
</clipPath>
</defs>
</svg>
