<svg width="54" height="57" viewBox="0 0 54 57" fill="none" xmlns="http://www.w3.org/2000/svg">
<g clip-path="url(#clip0_45_3676)">
<path d="M22.4439 54.1974H8.10467C7.85612 54.1974 7.65625 53.9976 7.65625 53.7491C7.65625 53.5006 7.85612 53.3008 8.10467 53.3008H22.4464C22.695 53.3008 22.8948 53.5006 22.8948 53.7491C22.8948 53.9976 22.695 54.1974 22.4464 54.1974H22.4439Z" fill="white"/>
<path d="M22.4159 44.0576C22.2545 44.0576 22.093 44.0218 21.9393 43.95C21.5447 43.7656 21.2987 43.3787 21.2987 42.9407V36.508H18.6543C17.3551 36.508 16.2969 35.45 16.2969 34.1511V13.0727C16.2969 11.7738 17.3551 10.7158 18.6543 10.7158H51.64C52.9392 10.7158 53.9975 11.7713 53.9975 13.0727V34.1537C53.9975 35.4525 52.9392 36.5106 51.64 36.5106H32.2555C32.0326 36.5106 31.8148 36.59 31.6431 36.7309L23.1257 43.7989C22.9207 43.9705 22.6696 44.0576 22.4159 44.0576ZM18.6543 11.615C17.8497 11.615 17.1937 12.2708 17.1937 13.0752V34.1563C17.1937 34.9607 17.8497 35.6165 18.6543 35.6165H21.3551C21.8188 35.6165 22.1955 35.9931 22.1955 36.4568V42.9458C22.1955 43.0713 22.2826 43.1251 22.3211 43.1431C22.3595 43.161 22.4569 43.1943 22.5517 43.1123L31.0691 36.0443C31.4022 35.7676 31.8225 35.6165 32.2555 35.6165H51.64C52.4446 35.6165 53.1006 34.9607 53.1006 34.1563V13.0727C53.1006 12.2683 52.4446 11.6124 51.64 11.6124H18.6543V11.615Z" fill="white"/>
<path d="M25.8059 57H4.74813C2.12935 57 0 54.8711 0 52.253V3.38157C0 1.51658 1.51694 0 3.38237 0H27.1717C29.0371 0 30.554 1.51658 30.554 3.38157V11.1643C30.554 11.4128 30.3542 11.6126 30.1056 11.6126C29.8571 11.6126 29.6572 11.4128 29.6572 11.1643V3.38157C29.6572 2.01101 28.5426 0.896629 27.1717 0.896629H3.38237C2.01148 0.896629 0.89684 2.01101 0.89684 3.38157V52.253C0.89684 54.3767 2.6239 56.1034 4.74813 56.1034H25.8059C27.9302 56.1034 29.6598 54.3767 29.6598 52.253V37.4253C29.6598 37.1768 29.8596 36.977 30.1082 36.977C30.3567 36.977 30.5566 37.1768 30.5566 37.4253V52.253C30.5566 54.8711 28.4247 57 25.8059 57Z" fill="white"/>
<path d="M20.4738 4.30634H10.0858C9.12749 4.30634 8.2204 3.84265 7.65924 3.06643L5.95268 0.709574C5.80662 0.509753 5.85275 0.227956 6.05261 0.084495C6.25248 -0.0615274 6.53434 -0.0154151 6.67784 0.184405L8.3844 2.54126C8.77901 3.08436 9.41448 3.40971 10.0858 3.40971H20.4738C21.1451 3.40971 21.7806 3.08436 22.1752 2.54126L23.8818 0.184405C24.0278 -0.0154151 24.3071 -0.0615274 24.507 0.084495C24.7069 0.230518 24.753 0.509753 24.6069 0.709574L22.9004 3.06643C22.3392 3.84265 21.4296 4.30634 20.4712 4.30634H20.4738Z" fill="white"/>
<path d="M24.299 29.4225C22.6078 29.4225 21.2344 28.0468 21.2344 26.3586C21.2344 26.1101 21.4342 25.9103 21.6828 25.9103C21.9313 25.9103 22.1312 26.1101 22.1312 26.3586C22.1312 27.555 23.1049 28.5259 24.299 28.5259C25.4931 28.5259 26.4668 27.5524 26.4668 26.3586V17.6485C26.4668 17.4 26.6667 17.2002 26.9152 17.2002C27.1638 17.2002 27.3636 17.4 27.3636 17.6485V26.3586C27.3636 28.0494 25.9876 29.4225 24.299 29.4225Z" fill="white"/>
<path d="M33.9775 29.4222C31.1896 29.4222 28.9219 26.6836 28.9219 23.32C28.9219 19.9563 31.1896 17.2178 33.9775 17.2178C36.7654 17.2178 39.0331 19.9563 39.0331 23.32C39.0331 26.6836 36.7654 29.4222 33.9775 29.4222ZM33.9775 18.1144C31.6841 18.1144 29.8187 20.4508 29.8187 23.32C29.8187 26.1892 31.6841 28.5255 33.9775 28.5255C36.2708 28.5255 38.1363 26.1892 38.1363 23.32C38.1363 20.4508 36.2708 18.1144 33.9775 18.1144Z" fill="white"/>
<path d="M45.1166 23.7584C44.8681 23.7584 44.6682 23.5586 44.6682 23.3101C44.6682 23.0616 44.8681 22.8618 45.1166 22.8618C46.4311 22.8618 47.4997 21.7935 47.4997 20.4793C47.4997 19.1651 46.4311 18.0968 45.1166 18.0968H41.0578C40.8092 18.0968 40.6094 17.897 40.6094 17.6485C40.6094 17.4 40.8092 17.2002 41.0578 17.2002H45.1166C46.9257 17.2002 48.3965 18.6707 48.3965 20.4793C48.3965 22.2879 46.9257 23.7584 45.1166 23.7584Z" fill="white"/>
<path d="M45.7931 29.4222H41.5575C41.0347 29.4222 40.6094 28.9969 40.6094 28.4743V17.6456C40.6094 17.3971 40.8092 17.1973 41.0578 17.1973C41.3063 17.1973 41.5062 17.3971 41.5062 17.6456V22.9101C41.5677 22.8793 41.6369 22.8614 41.7112 22.8614H45.7931C47.6022 22.8614 49.073 24.3319 49.073 26.1405C49.073 27.9491 47.6022 29.4196 45.7931 29.4196V29.4222ZM41.5062 23.7094V28.4743C41.5062 28.5025 41.5293 28.5255 41.5575 28.5255H45.7931C47.1076 28.5255 48.1761 27.4573 48.1761 26.1431C48.1761 24.8289 47.1076 23.7606 45.7931 23.7606H41.7112C41.6369 23.7606 41.5677 23.7427 41.5062 23.7119V23.7094Z" fill="white"/>
</g>
<defs>
<clipPath id="clip0_45_3676">
<rect width="54" height="57" fill="white"/>
</clipPath>
</defs>
</svg>
