<svg width="26" height="26" viewBox="0 0 26 26" fill="none" xmlns="http://www.w3.org/2000/svg">
<circle cx="13" cy="13" r="13" fill="#522D6E"/>
<path d="M7.75449 12.7984C7.423 12.5111 6.92943 12.5695 6.66602 12.9054L7.05947 13.2139L6.66602 12.9054C6.41496 13.2255 6.44843 13.7038 6.76906 13.9792C6.76951 13.9796 6.76996 13.98 6.77041 13.9804L11.7818 18.3142C11.92 18.4351 12.0967 18.5 12.276 18.5H12.2761H12.2761H12.2762H12.2762H12.2762H12.2763H12.2763H12.2764H12.2764H12.2765H12.2765H12.2766H12.2766H12.2766H12.2767H12.2767H12.2768H12.2768H12.2769H12.2769H12.277H12.277H12.277H12.2771H12.2771H12.2772H12.2772H12.2773H12.2773H12.2774H12.2774H12.2774H12.2775H12.2775H12.2776H12.2776H12.2777H12.2777H12.2778H12.2778H12.2779H12.2779H12.2779H12.278H12.278H12.2781H12.2781H12.2782H12.2782H12.2783H12.2783H12.2784H12.2784H12.2784H12.2785H12.2785H12.2786H12.2786H12.2787H12.2787H12.2788H12.2788H12.2789H12.2789H12.2789H12.279H12.279H12.2791H12.2791H12.2792H12.2792H12.2793H12.2793H12.2794H12.2794H12.2794H12.2795H12.2795H12.2796H12.2796H12.2797H12.2797H12.2798H12.2798H12.2799H12.2799H12.28H12.28H12.2801H12.2801H12.2801H12.2802H12.2802H12.2803H12.2803H12.2804H12.2804H12.2805H12.2805H12.2806H12.2806H12.2807H12.2807H12.2808H12.2808H12.2808H12.2809H12.2809H12.281H12.281H12.2811H12.2811H12.2812H12.2812H12.2813H12.2813H12.2814H12.2814H12.2815H12.2815H12.2816H12.2816H12.2817H12.2817H12.2817H12.2818H12.2818H12.2819H12.2819H12.282H12.282H12.2821H12.2821H12.2822H12.2822H12.2823H12.2823H12.2824H12.2824H12.2825H12.2825H12.2826H12.2826H12.2827H12.2827H12.2828H12.2828H12.2828H12.2829H12.2829H12.283H12.283H12.2831H12.2831H12.2832H12.2832H12.2833H12.2833H12.2834H12.2834H12.2835H12.2835H12.2836H12.2836H12.2837H12.2837H12.2838H12.2838H12.2839H12.2839H12.284H12.284H12.2841H12.2841H12.2842H12.2842H12.2843H12.2843H12.2843H12.2844H12.2844H12.2845H12.2845H12.2846H12.2846H12.2847H12.2847H12.2848H12.2848H12.2849H12.2849H12.285H12.285H12.2851H12.2851H12.2852H12.2852H12.2853H12.2853H12.2854H12.2854H12.2855H12.2855H12.2856H12.2856H12.2857H12.2857H12.2858H12.2858H12.2859H12.2859H12.286H12.286H12.2861H12.2861H12.2862H12.2862H12.2863H12.2863H12.2864H12.2864H12.2865H12.2865H12.2866H12.2866H12.2867H12.2867H12.2868H12.2868H12.2869H12.2869H12.287H12.287H12.2871H12.2871H12.2872H12.2872H12.2873H12.2873H12.2874H12.2874H12.2875H12.2875H12.2876H12.2876H12.2877H12.2877H12.2878H12.2878H12.2879H12.2879H12.288H12.288H12.2881H12.2881H12.2882H12.2882H12.2883H12.2883H12.2884H12.2884H12.2885H12.2885H12.2886H12.2886H12.2887H12.2887H12.2888H12.2888H12.2889H12.2889H12.289H12.289H12.2891H12.2891H12.2892H12.2892H12.2893H12.2893H12.2894H12.2894H12.2895H12.2895H12.2896H12.2896H12.2897H12.2897H12.2898H12.2898H12.2899H12.2899H12.29H12.29H12.2901H12.2901H12.2902H12.2902H12.2903H12.2903H12.2904H12.2905H12.2905H12.2906H12.2906H12.2907H12.2907H12.2908H12.2908H12.2909H12.2909H12.291H12.291H12.2911H12.2911H12.2912H12.2912H12.2913H12.2913H12.2914H12.2914H12.2915H12.2915H12.2916H12.2916H12.2917H12.2917H12.2918H12.2918H12.2919H12.2919H12.292H12.292H12.2921H12.2921H12.2922H12.2922H12.2923H12.2923H12.2924H12.2925H12.2925H12.2926H12.2926H12.2927H12.2927H12.2928H12.2928H12.2929H12.2929H12.293H12.293H12.2931H12.2931H12.2932H12.2932H12.2933H12.2933H12.2934H12.2934H12.2935H12.2935H12.2936H12.2936H12.2937H12.2937H12.2938H12.2938H12.2939H12.294H12.294H12.2941H12.2941H12.2942H12.2942H12.2943H12.2943H12.2944H12.2944H12.2945H12.2945H12.2946H12.2946H12.2947H12.2947H12.2948H12.2948H12.2949H12.2949H12.295H12.295H12.2951H12.2951H12.2952H12.2953H12.2953H12.2954H12.2954H12.2955H12.2955H12.2956H12.2956H12.2957H12.2957H12.2958H12.2958H12.2959H12.2959H12.296H12.296H12.2961H12.2961H12.2962H12.2962H12.2963H12.2963H12.2964H12.2965H12.2965H12.2966H12.2966H12.2967H12.2967H12.2968H12.2968H12.2969H12.2969H12.297H12.297H12.2971H12.2971H12.2972H12.2972H12.2973H12.2973H12.2974H12.2974H12.2975H12.2975H12.2976H12.2977H12.2977H12.2978H12.2978H12.2979H12.2979H12.298H12.298H12.2981H12.2981H12.2982H12.2982H12.2983H12.2983H12.2984H12.2984H12.2985H12.2985H12.2986H12.2986H12.2987H12.2988H12.2988H12.2989H12.2989H12.299H12.299H12.2991H12.2991H12.2992H12.2992H12.2993H12.2993H12.2994H12.2994H12.2995H12.2995H12.2996H12.2996H12.2997H12.2998H12.2998H12.2999H12.2999H12.3H12.3H12.3001H12.3001H12.3002H12.3002H12.3003H12.3003H12.3004H12.3004H12.3005H12.3005H12.3006H12.3006H12.3007H12.3007H12.3008H12.3009H12.3009H12.301H12.301H12.3011H12.3011H12.3012H12.3012H12.3013H12.3013H12.3014H12.3014H12.3299L12.3582 18.4968C12.5621 18.4735 12.7483 18.3677 12.8736 18.205C12.8739 18.2045 12.8743 18.2041 12.8746 18.2036L20.1936 8.75445L20.1937 8.75425C20.4444 8.43034 20.4052 7.95483 20.0858 7.68183C19.7541 7.39818 19.2618 7.45402 18.9979 7.79517L12.1666 16.6152L7.75449 12.7984Z" fill="white" stroke="white"/>
</svg>
