<svg width="95" height="94" viewBox="0 0 95 94" fill="none" xmlns="http://www.w3.org/2000/svg">
<ellipse cx="47.5" cy="47" rx="47.5" ry="47" fill="#522D6E"/>
<g clip-path="url(#clip0_22_95)">
<path d="M50.745 83.7924C49.3661 83.7924 48.1543 83.0371 47.5025 81.919C46.8508 83.0404 45.639 83.7924 44.2601 83.7924C42.1869 83.7924 40.5035 82.0938 40.5035 80.0094V58.1921C40.5035 56.3979 39.914 54.6169 38.8462 53.1789L30.6747 42.1664C30.2063 41.5331 30.0262 40.7548 30.1605 39.9797C30.298 39.2046 30.7303 38.5384 31.3854 38.1031C32.6234 37.2818 34.2905 37.5721 35.1813 38.7627L41.2895 46.8036C42.0821 47.8524 43.2841 48.4922 44.5876 48.5615H50.4371C51.7374 48.4889 52.9328 47.8491 53.7188 46.8036C53.7254 46.7937 53.7352 46.7838 53.745 46.7739L60.7146 38.7462C61.6088 37.5688 63.266 37.2884 64.4975 38.1031C65.1525 38.5351 65.5848 39.2013 65.7224 39.9797C65.8599 40.7548 65.6765 41.5331 65.2115 42.1631L56.149 53.1987C55.0977 54.6136 54.5082 56.3946 54.5082 58.1921V80.0094C54.5082 82.0971 52.8214 83.7924 50.7515 83.7924H50.745ZM47.4436 67.0839H47.5615C47.8792 67.0839 48.1347 67.3412 48.1347 67.6611V80.0061C48.1347 81.4573 49.3072 82.6347 50.745 82.6347C52.1828 82.6347 53.3553 81.454 53.3553 80.0061V58.1888C53.3553 56.144 54.0234 54.1189 55.2418 52.483L64.3042 41.4474C64.563 41.0945 64.6711 40.636 64.5892 40.1743C64.5073 39.7126 64.2518 39.3201 63.8621 39.0628C63.1284 38.578 62.1393 38.7495 61.6088 39.4553C61.5989 39.4652 61.5924 39.4784 61.5826 39.4883L54.613 47.516C53.6173 48.8254 52.1107 49.6235 50.4764 49.7093C50.4666 49.7093 50.4568 49.7093 50.4469 49.7093H44.5549C42.8813 49.6202 41.3714 48.8155 40.3758 47.4962L34.2675 39.4553C33.737 38.7462 32.7479 38.5747 32.0142 39.0628C31.6277 39.3201 31.369 39.7159 31.2871 40.1743C31.2052 40.636 31.3133 41.0945 31.5917 41.4705L39.7633 52.483C40.9784 54.1189 41.6498 56.144 41.6498 58.1888V80.0061C41.6498 81.4573 42.8223 82.6347 44.2601 82.6347C45.6979 82.6347 46.8704 81.454 46.8704 80.0061V67.6611C46.8704 67.3412 47.1259 67.0839 47.4436 67.0839Z" fill="white"/>
<path d="M47.4988 47.7271C44.9573 47.7271 42.8906 45.4646 42.8906 42.6809C42.8906 39.8973 44.9573 37.6348 47.4988 37.6348C50.0403 37.6348 52.107 39.9006 52.107 42.6809C52.107 45.4613 50.0403 47.7271 47.4988 47.7271ZM47.4988 38.7891C45.5894 38.7891 44.0369 40.5338 44.0369 42.6809C44.0369 44.828 45.5894 46.5728 47.4988 46.5728C49.4082 46.5728 50.9607 44.828 50.9607 42.6809C50.9607 40.5338 49.4082 38.7891 47.4988 38.7891Z" fill="white"/>
<path d="M38.2665 84.0003H29.5643C29.3973 84.0003 29.2401 83.9277 29.132 83.7991C29.0239 83.6737 28.9748 83.5022 28.9977 83.3373L33.7271 50.8175C33.7729 50.5009 34.0611 50.2832 34.3788 50.3294C34.6933 50.3756 34.9094 50.6691 34.8636 50.9858L30.2292 82.8459H38.2665C38.5842 82.8459 38.8396 83.1032 38.8396 83.4231C38.8396 83.743 38.5842 84.0003 38.2665 84.0003Z" fill="white"/>
<path d="M65.4334 84.0003H56.8622C56.5445 84.0003 56.2891 83.743 56.2891 83.4231C56.2891 83.1032 56.5445 82.8459 56.8622 82.8459H64.7718L60.1374 50.9858C60.0915 50.6691 60.3077 50.3756 60.6221 50.3294C60.9365 50.2832 61.228 50.5009 61.2739 50.8175L66.0033 83.3373C66.0262 83.5022 65.977 83.6704 65.869 83.7991C65.7609 83.9244 65.6004 84.0003 65.4366 84.0003H65.4334Z" fill="white"/>
<path d="M36.3746 37.1667C36.3484 37.1667 36.319 37.1667 36.2928 37.1601C35.9783 37.1139 35.7622 36.8204 35.808 36.5071L36.5843 31.1673H23.572C23.3427 31.1673 23.1364 31.0321 23.0479 30.821C22.9562 30.61 22.9988 30.3659 23.1527 30.1977L47.0779 4.17856C47.2941 3.94439 47.7035 3.94439 47.9197 4.17856L71.8449 30.1977C71.9988 30.3659 72.0414 30.61 71.9497 30.821C71.858 31.0321 71.6516 31.1673 71.4256 31.1673H58.4133L59.0553 35.5869C59.1011 35.9035 58.885 36.1937 58.5706 36.2399C58.2594 36.2861 57.9679 36.0684 57.9221 35.7518L57.1852 30.6726C57.1622 30.5077 57.2114 30.3395 57.3194 30.2109C57.4275 30.0856 57.588 30.0097 57.7518 30.0097H70.1123L47.5004 5.41866L24.8853 30.0097H37.2458C37.4129 30.0097 37.5701 30.0823 37.6782 30.2109C37.7862 30.3362 37.8354 30.5044 37.8124 30.6726L36.9412 36.6753C36.8987 36.9622 36.653 37.17 36.3746 37.17V37.1667Z" fill="white"/>
</g>
<defs>
<clipPath id="clip0_22_95">
<rect width="49" height="80" fill="white" transform="translate(23 4)"/>
</clipPath>
</defs>
</svg>
