<svg width="20" height="20" viewBox="0 0 20 20" fill="none" xmlns="http://www.w3.org/2000/svg">
<path d="M4.53797 6.50488H0.25V19.996H4.53797V6.50488Z" fill="white"/>
<path d="M2.42558 0C0.958543 0 0 1.00885 0 2.33112C0 3.62562 0.929394 4.66229 2.36883 4.66229H2.39653C3.89167 4.66229 4.82232 3.62562 4.82232 2.33112C4.79457 1.00885 3.89177 0 2.42558 0Z" fill="white"/>
<path d="M15.0647 6.19141C12.7902 6.19141 11.7714 7.49977 11.2009 8.41876V6.50865H6.91406C6.97091 7.77413 6.91406 19.9997 6.91406 19.9997H11.2009V12.4653C11.2009 12.0621 11.2286 11.6589 11.3422 11.3707C11.6516 10.5653 12.3575 9.731 13.5419 9.731C15.0925 9.731 15.7137 10.9686 15.7137 12.7814V19.9997H20.0007V12.2632C20.0007 8.11914 17.8854 6.19141 15.0647 6.19141Z" fill="white"/>
</svg>
