  <svg width="95" height="94" viewBox="0 0 95 94" fill="none" xmlns="http://www.w3.org/2000/svg">
                        <ellipse cx="47.5" cy="47" rx="47.5" ry="47" fill="#522D6E" />
                        <g clip-path="url(#clip0_22_95)">
                            <path
                                d="M48.4439 73.1974H34.1047C33.8561 73.1974 33.6562 72.9976 33.6562 72.7491C33.6562 72.5006 33.8561 72.3008 34.1047 72.3008H48.4464C48.695 72.3008 48.8948 72.5006 48.8948 72.7491C48.8948 72.9976 48.695 73.1974 48.4464 73.1974H48.4439Z"
                                fill="white" />
                            <path
                                d="M48.4159 63.0576C48.2545 63.0576 48.093 63.0218 47.9393 62.95C47.5447 62.7656 47.2987 62.3787 47.2987 61.9407V55.508H44.6543C43.3551 55.508 42.2969 54.45 42.2969 53.1511V32.0727C42.2969 30.7738 43.3551 29.7158 44.6543 29.7158H77.64C78.9392 29.7158 79.9975 30.7713 79.9975 32.0727V53.1537C79.9975 54.4525 78.9392 55.5106 77.64 55.5106H58.2555C58.0326 55.5106 57.8148 55.59 57.6431 55.7309L49.1257 62.7989C48.9207 62.9705 48.6696 63.0576 48.4159 63.0576ZM44.6543 30.615C43.8497 30.615 43.1937 31.2708 43.1937 32.0752V53.1563C43.1937 53.9607 43.8497 54.6165 44.6543 54.6165H47.3551C47.8188 54.6165 48.1955 54.9931 48.1955 55.4568V61.9458C48.1955 62.0713 48.2826 62.1251 48.3211 62.1431C48.3595 62.161 48.4569 62.1943 48.5517 62.1123L57.0691 55.0443C57.4022 54.7676 57.8225 54.6165 58.2555 54.6165H77.64C78.4446 54.6165 79.1006 53.9607 79.1006 53.1563V32.0727C79.1006 31.2683 78.4446 30.6124 77.64 30.6124H44.6543V30.615Z"
                                fill="white" />
                            <path
                                d="M51.8059 76H30.7481C28.1294 76 26 73.8711 26 71.253V22.3816C26 20.5166 27.5169 19 29.3824 19H53.1717C55.0371 19 56.554 20.5166 56.554 22.3816V30.1643C56.554 30.4128 56.3542 30.6126 56.1056 30.6126C55.8571 30.6126 55.6572 30.4128 55.6572 30.1643V22.3816C55.6572 21.011 54.5426 19.8966 53.1717 19.8966H29.3824C28.0115 19.8966 26.8968 21.011 26.8968 22.3816V71.253C26.8968 73.3767 28.6239 75.1034 30.7481 75.1034H51.8059C53.9302 75.1034 55.6598 73.3767 55.6598 71.253V56.4253C55.6598 56.1768 55.8596 55.977 56.1082 55.977C56.3567 55.977 56.5566 56.1768 56.5566 56.4253V71.253C56.5566 73.8711 54.4247 76 51.8059 76Z"
                                fill="white" />
                            <path
                                d="M46.4738 23.3063H36.0858C35.1275 23.3063 34.2204 22.8427 33.6592 22.0664L31.9527 19.7096C31.8066 19.5098 31.8527 19.228 32.0526 19.0845C32.2525 18.9385 32.5343 18.9846 32.6778 19.1844L34.3844 21.5413C34.779 22.0844 35.4145 22.4097 36.0858 22.4097H46.4738C47.1451 22.4097 47.7806 22.0844 48.1752 21.5413L49.8818 19.1844C50.0278 18.9846 50.3071 18.9385 50.507 19.0845C50.7069 19.2305 50.753 19.5098 50.6069 19.7096L48.9004 22.0664C48.3392 22.8427 47.4296 23.3063 46.4712 23.3063H46.4738Z"
                                fill="white" />
                            <path
                                d="M50.299 48.4225C48.6078 48.4225 47.2344 47.0468 47.2344 45.3586C47.2344 45.1101 47.4342 44.9103 47.6828 44.9103C47.9313 44.9103 48.1312 45.1101 48.1312 45.3586C48.1312 46.555 49.1049 47.5259 50.299 47.5259C51.4931 47.5259 52.4668 46.5524 52.4668 45.3586V36.6485C52.4668 36.4 52.6667 36.2002 52.9152 36.2002C53.1638 36.2002 53.3636 36.4 53.3636 36.6485V45.3586C53.3636 47.0494 51.9876 48.4225 50.299 48.4225Z"
                                fill="white" />
                            <path
                                d="M59.9775 48.4222C57.1896 48.4222 54.9219 45.6836 54.9219 42.32C54.9219 38.9563 57.1896 36.2178 59.9775 36.2178C62.7654 36.2178 65.0331 38.9563 65.0331 42.32C65.0331 45.6836 62.7654 48.4222 59.9775 48.4222ZM59.9775 37.1144C57.6841 37.1144 55.8187 39.4508 55.8187 42.32C55.8187 45.1892 57.6841 47.5255 59.9775 47.5255C62.2708 47.5255 64.1363 45.1892 64.1363 42.32C64.1363 39.4508 62.2708 37.1144 59.9775 37.1144Z"
                                fill="white" />
                            <path
                                d="M71.1166 42.7584C70.8681 42.7584 70.6682 42.5586 70.6682 42.3101C70.6682 42.0616 70.8681 41.8618 71.1166 41.8618C72.4311 41.8618 73.4997 40.7935 73.4997 39.4793C73.4997 38.1651 72.4311 37.0968 71.1166 37.0968H67.0578C66.8092 37.0968 66.6094 36.897 66.6094 36.6485C66.6094 36.4 66.8092 36.2002 67.0578 36.2002H71.1166C72.9257 36.2002 74.3965 37.6707 74.3965 39.4793C74.3965 41.2879 72.9257 42.7584 71.1166 42.7584Z"
                                fill="white" />
                            <path
                                d="M71.7931 48.4222H67.5575C67.0347 48.4222 66.6094 47.9969 66.6094 47.4743V36.6456C66.6094 36.3971 66.8092 36.1973 67.0578 36.1973C67.3063 36.1973 67.5062 36.3971 67.5062 36.6456V41.9101C67.5677 41.8793 67.6369 41.8614 67.7112 41.8614H71.7931C73.6022 41.8614 75.073 43.3319 75.073 45.1405C75.073 46.9491 73.6022 48.4196 71.7931 48.4196V48.4222ZM67.5062 42.7094V47.4743C67.5062 47.5025 67.5293 47.5255 67.5575 47.5255H71.7931C73.1076 47.5255 74.1761 46.4573 74.1761 45.1431C74.1761 43.8289 73.1076 42.7606 71.7931 42.7606H67.7112C67.6369 42.7606 67.5677 42.7427 67.5062 42.7119V42.7094Z"
                                fill="white" />
                        </g>
                        <defs>
                            <clipPath id="clip0_22_95">
                                <rect width="54" height="57" fill="white" transform="translate(26 19)" />
                            </clipPath>
                        </defs>
                    </svg>
