<svg width="20" height="20" viewBox="0 0 20 20" fill="none" xmlns="http://www.w3.org/2000/svg">
<path d="M6.28961 20C13.8368 20 17.9648 12.3048 17.9648 5.63143C17.9648 5.41288 17.9648 5.1953 17.9528 4.97868C18.7559 4.26377 19.4491 3.37868 20 2.36471C19.2511 2.7731 18.4566 3.04087 17.6432 3.15923C18.4996 2.5283 19.141 1.53519 19.4472 0.366035C18.6418 0.954219 17.7605 1.36881 16.8416 1.59182C16.0657 0.576454 14.9821 0 13.8497 0C11.5965 0 9.74246 2.28178 9.74246 5.05468C9.74246 5.43937 9.77816 5.82286 9.84879 6.19755C6.55121 5.99414 3.47457 4.07455 1.39199 0.921337C0.309023 3.21571 0.869375 6.18908 2.66238 7.66255C2.00945 7.63875 1.37055 7.42194 0.8 7.03047V7.09446C0.800547 9.48921 2.18465 11.5707 4.09199 12.0448C3.48793 12.2476 2.85398 12.2772 2.23922 12.1315C2.77543 14.1835 4.32168 15.598 6.07281 15.6384C4.62008 17.0435 2.82449 17.8067 0.976797 17.8045C0.650312 17.8037 0.324141 17.7794 0 17.7316C1.87633 19.2135 4.06016 19.9997 6.28961 19.9961" fill="white"/>
</svg>
